<svg width="494" height="714" viewBox="0 0 494 714" fill="none" xmlns="http://www.w3.org/2000/svg">
<g clip-path="url(#clip0_85_1068)">
<path d="M0.286767 250.688L0 253.746L8.8236 266.046C9.23169 266.62 9.59566 267.238 9.90448 267.89C10.2133 268.541 10.467 269.237 10.6655 269.954C10.8641 270.672 10.9964 271.412 11.0626 272.173C11.1288 272.935 11.1288 273.697 11.0405 274.481L10.853 276.369L12.4302 278.577L12.6067 276.822C12.728 275.618 12.7391 274.371 12.6288 273.123C12.5185 271.875 12.3199 270.639 12.0111 269.435C11.7023 268.232 11.3163 267.084 10.842 266.013C10.3677 264.942 9.81625 263.959 9.1986 263.098L0.286767 250.688Z" fill="#EE3442"/>
<path d="M9.28675 252.741L3.18744 240L10.0478 244.958L9.27572 252.741M1.66537 235.484L1.26831 239.779L13.7206 265.946L14.0294 262.921L10.7647 255.921L11.7353 246.183L15.4964 248.734L15.8162 245.598L1.66537 235.484Z" fill="#EE3442"/>
<path d="M4.23532 207.518L3.93753 210.808L14.6361 232.967L2.66913 224.554L2.37134 227.756L16.5773 238.123L17.0406 233.652L4.23532 207.518Z" fill="#EE3442"/>
<path d="M13.2575 212.575L6.95963 199.646L14.0737 204.316L13.2575 212.575ZM5.40447 195.008L4.98535 199.557L17.8457 226.111L18.1766 222.909L14.8016 215.799L15.8384 205.464L19.7318 207.849L20.0737 204.526L5.40447 195.02" fill="#EE3442"/>
<path d="M7.103 173.501C6.95962 175.113 6.93756 176.636 7.01476 178.05C7.09197 179.463 7.27947 180.777 7.55521 181.98C7.83095 183.184 8.18389 184.255 8.59198 185.215C9.00007 186.176 9.48537 186.993 10.0148 187.677C11.2391 189.267 12.1214 189.3 12.8273 188.527C13.5332 187.755 14.0626 186.176 14.5479 184.531C15.0332 182.886 15.4854 181.174 16.0369 180.181C16.5884 179.187 17.2612 178.889 18.1876 180.07C18.5737 180.556 18.9046 181.163 19.1693 181.859C19.434 182.554 19.6546 183.327 19.809 184.177C19.9634 185.027 20.0516 185.922 20.0847 186.871C20.1178 187.821 20.0847 188.792 19.9744 189.775C19.8641 190.824 19.7097 191.696 19.5002 192.381C19.2906 193.065 19.0479 193.562 18.7612 193.86C18.4744 194.158 18.1656 194.28 17.8237 194.191C17.4818 194.103 17.1288 193.827 16.7538 193.341L16.1141 192.513L15.7722 195.903L16.3126 196.598C16.9303 197.404 17.5369 197.934 18.0994 198.166C18.6619 198.398 19.1803 198.332 19.6546 197.967C20.1288 197.603 20.5369 196.93 20.8678 195.936C21.1987 194.942 21.4634 193.639 21.6399 191.994C21.8163 190.349 21.8494 188.726 21.7722 187.192C21.695 185.657 21.4965 184.21 21.1987 182.875C20.9009 181.539 20.5149 180.313 20.0516 179.242C19.5884 178.171 19.0479 177.244 18.4523 176.493C17.1509 174.848 16.1803 174.77 15.4192 175.521C14.6582 176.272 14.0957 177.84 13.5883 179.474C13.081 181.108 12.6508 182.808 12.1435 183.846C11.6361 184.884 11.0626 185.259 10.2685 184.233C9.94861 183.824 9.67287 183.305 9.44125 182.72C9.20963 182.135 9.02213 181.461 8.88978 180.722C8.75742 179.982 8.66919 179.187 8.6361 178.326C8.60301 177.464 8.6361 176.57 8.72434 175.621C8.81257 174.627 8.95596 173.821 9.14346 173.181C9.33096 172.54 9.55155 172.088 9.7942 171.812C10.0368 171.535 10.3346 171.436 10.6324 171.502C10.9302 171.569 11.2611 171.834 11.603 172.264L12.2758 173.125L12.6067 169.703L11.9891 168.919C11.3935 168.168 10.831 167.671 10.3016 167.45C9.77214 167.23 9.28684 167.296 8.86772 167.649C8.4486 168.002 8.06257 168.665 7.76477 169.625C7.46697 170.586 7.22432 171.878 7.08094 173.49" fill="#EE3442"/>
<path d="M9.41914 148.305C9.25369 150.05 9.22061 151.728 9.30884 153.307C9.39708 154.886 9.58458 156.365 9.89341 157.734C10.2022 159.103 10.5993 160.373 11.1066 161.51C11.614 162.648 12.2096 163.663 12.8934 164.525L18.6067 171.778C19.3016 172.662 19.9523 173.225 20.5589 173.479C21.1655 173.733 21.706 173.666 22.2023 173.269C22.6986 172.871 23.1067 172.143 23.4597 171.083C23.8126 170.023 24.0773 168.61 24.2538 166.854C24.4303 165.099 24.4854 163.398 24.4082 161.797C24.331 160.196 24.1435 158.673 23.8347 157.26C23.5259 155.846 23.1067 154.555 22.5884 153.395C22.07 152.236 21.4523 151.209 20.7464 150.326L19.7758 149.122L19.4119 152.843L20.228 153.87C20.7133 154.477 21.1325 155.14 21.4744 155.891C21.8163 156.641 22.092 157.458 22.2906 158.353C22.4891 159.247 22.6104 160.23 22.6435 161.29C22.6766 162.349 22.6435 163.498 22.5111 164.734C22.3788 165.971 22.2134 166.954 21.9928 167.693C21.7722 168.433 21.5075 168.919 21.1876 169.173C20.8678 169.427 20.5258 169.46 20.1288 169.272C19.7317 169.084 19.2905 168.687 18.8163 168.08L13.3677 161.19C12.8934 160.594 12.4964 159.931 12.1545 159.192C11.8125 158.452 11.5589 157.646 11.3603 156.752C11.1618 155.857 11.0515 154.886 11.0074 153.826C10.9633 152.766 11.0074 151.618 11.1177 150.37C11.228 149.122 11.3934 148.184 11.603 147.455C11.8125 146.727 12.0662 146.23 12.375 145.965C12.6839 145.7 13.0258 145.667 13.4228 145.843C13.8199 146.02 14.2501 146.406 14.7243 147.003L15.5405 148.018L15.8934 144.298L14.9339 143.116C14.239 142.255 13.5883 141.703 12.9927 141.482C12.3971 141.261 11.8567 141.361 11.3824 141.78C10.9081 142.2 10.5 142.962 10.1691 144.044C9.83826 145.126 9.59561 146.55 9.43017 148.294" fill="#EE3442"/>
<path d="M18.2207 136.911L13.2023 130.739L13.9523 122.657C14.0295 121.785 14.1508 121.09 14.2942 120.549C14.4376 120.008 14.6251 119.632 14.8457 119.422C15.0663 119.213 15.3089 119.157 15.5957 119.257C15.8824 119.356 16.1913 119.621 16.5332 120.041L17.3825 121.067C17.7354 121.498 18.0332 121.973 18.2758 122.503C18.5185 123.033 18.706 123.629 18.8494 124.269C18.9928 124.91 19.07 125.616 19.092 126.378C19.1141 127.14 19.092 127.957 19.0038 128.84L18.2207 136.889M12.2317 120.825L11.1729 132.285L25.6766 150.171L26.0516 146.528L19.9523 139.031L20.7244 131.148L20.7465 130.938L27.4414 133.014L27.8384 129.116L20.8126 126.798C20.7575 125.826 20.6472 124.877 20.4928 123.982C20.3384 123.088 20.1178 122.238 19.8641 121.432C19.6104 120.626 19.2906 119.886 18.9376 119.213C18.5847 118.539 18.1766 117.921 17.7354 117.38L16.8861 116.353C16.2905 115.624 15.728 115.183 15.2207 115.017C14.7133 114.851 14.2611 114.962 13.853 115.337C13.4449 115.713 13.114 116.364 12.8383 117.291C12.5626 118.219 12.353 119.389 12.2207 120.836" fill="#EE3442"/>
<path d="M13.9303 102.43L13.5774 106.195L28.379 123.949L28.776 120.162L13.9303 102.43Z" fill="#EE3442"/>
<path d="M22.5663 101.139L16.6214 94.1166L17.4156 85.6262C17.5038 84.7098 17.6251 83.97 17.7795 83.4069C17.9339 82.8438 18.1325 82.4353 18.3531 82.2035C18.5737 81.9716 18.8384 81.8943 19.1362 81.9937C19.434 82.0931 19.7538 82.347 20.1068 82.7555L21.7502 84.6656C22.1031 85.0851 22.4119 85.5599 22.6656 86.1009C22.9193 86.6419 23.1068 87.2492 23.2502 87.9116C23.3935 88.5741 23.4708 89.3138 23.4928 90.1088C23.5149 90.9037 23.4928 91.7649 23.3935 92.6923L22.5663 101.15M15.6398 83.8596L14.5369 95.8942L29.4598 113.604L29.8568 109.762L24.3641 103.27L25.1803 94.9778C25.3347 93.4652 25.3678 92.0078 25.3017 90.6166C25.2355 89.2255 25.07 87.9116 24.8053 86.6971C24.5406 85.4826 24.1766 84.3675 23.7244 83.3738C23.2722 82.3801 22.7318 81.5189 22.1252 80.8013L20.4818 78.8912C19.8641 78.1735 19.2906 77.7429 18.7612 77.5994C18.2317 77.4559 17.7575 77.5994 17.3494 78.019C16.9413 78.4385 16.5773 79.1451 16.2906 80.1167C16.0038 81.0883 15.7832 82.336 15.6508 83.8486" fill="#EE3442"/>
<path d="M18.9486 47.8221L16.7427 71.8471L18.5074 73.8897L19.4339 63.9639L32.9781 79.4432L33.3862 75.4244L19.8089 59.9671L20.7464 49.8426L18.9486 47.8221Z" fill="#EE3442"/>
<path d="M33.662 253.614L28.7208 246.989L29.537 239.79C29.6252 239.018 29.7465 238.399 29.9009 237.947C30.0554 237.494 30.2429 237.185 30.4524 237.03C30.662 236.876 30.9157 236.876 31.2024 237.03C31.4892 237.185 31.798 237.483 32.1289 237.936L32.9671 239.04C33.3091 239.503 33.6069 240 33.8495 240.53C34.0922 241.06 34.2686 241.634 34.401 242.253C34.5333 242.871 34.5995 243.522 34.6216 244.218C34.6436 244.913 34.5995 245.653 34.5113 246.437L33.673 253.603M27.8384 237.781L26.7024 247.994L40.9856 267.183L41.3827 263.937L35.3716 255.888L36.1988 248.866L36.2208 248.678L42.8606 251.924L43.2908 248.446L36.3311 244.924C36.287 244.019 36.1767 243.147 36.0333 242.297C35.89 241.447 35.6804 240.63 35.4267 239.857C35.173 239.084 34.8752 238.344 34.5223 237.66C34.1694 236.975 33.7833 236.335 33.3421 235.749L32.5039 234.645C31.9083 233.861 31.3568 233.343 30.8605 233.089C30.3642 232.835 29.9009 232.846 29.5039 233.111C29.1068 233.376 28.7649 233.906 28.4781 234.678C28.1914 235.451 27.9818 236.489 27.8384 237.781Z" fill="#EE3442"/>
<path d="M31.1362 208.147L29.2832 224.731L43.8642 243.864L45.9157 227.248L44.1289 224.94L42.5076 238.201L37.8972 232.15L39.2539 220.657L37.5002 218.382L36.1546 229.876L31.3567 223.593L32.8457 210.366L31.1362 208.147Z" fill="#EE3442"/>
<path d="M41.4158 210.057L34.6326 196.444L42.4525 201.335L41.4158 210.057ZM32.9782 191.575L32.4377 196.378L46.2687 224.311L46.6879 220.933L43.0591 213.447L44.3717 202.538L48.6621 205.034L49.0923 201.523L32.9782 191.575Z" fill="#EE3442"/>
<path d="M35.2392 168.499C35.0406 170.288 34.9745 171.999 35.0517 173.622C35.1289 175.245 35.3053 176.769 35.6142 178.182C35.923 179.595 36.3421 180.909 36.8715 182.091C37.4009 183.272 38.0407 184.332 38.7686 185.248L44.8679 192.9C45.6069 193.827 46.3128 194.445 46.9635 194.721C47.6143 194.997 48.2098 194.964 48.7503 194.578C49.2907 194.191 49.754 193.463 50.151 192.392C50.5481 191.321 50.8569 189.874 51.0775 188.086C51.2981 186.297 51.3753 184.553 51.3202 182.897C51.265 181.24 51.0775 179.684 50.7577 178.226C50.4378 176.769 50.0077 175.422 49.4562 174.207C48.9047 172.993 48.254 171.911 47.4929 170.983L46.4562 169.714L46.0039 173.523L46.8863 174.605C47.4047 175.245 47.8459 175.941 48.2098 176.725C48.5738 177.509 48.8606 178.348 49.0591 179.286C49.2576 180.225 49.379 181.218 49.401 182.311C49.4231 183.404 49.3679 184.575 49.2135 185.833C49.0591 187.092 48.8496 188.108 48.6069 188.848C48.3643 189.587 48.0554 190.084 47.7135 190.338C47.3716 190.592 46.9856 190.614 46.5554 190.404C46.1253 190.195 45.662 189.764 45.1436 189.135L39.3311 181.859C38.8237 181.229 38.3936 180.534 38.0407 179.761C37.6877 178.988 37.412 178.149 37.2134 177.233C37.0149 176.316 36.9046 175.311 36.8715 174.218C36.8384 173.125 36.8936 171.944 37.037 170.674C37.1804 169.405 37.3679 168.444 37.6105 167.704C37.8532 166.965 38.1399 166.468 38.4708 166.214C38.8017 165.96 39.1877 165.927 39.6068 166.125C40.026 166.324 40.5002 166.744 41.0076 167.362L41.8789 168.433L42.3201 164.635L41.2944 163.376C40.5554 162.46 39.8495 161.875 39.2098 161.632C38.5701 161.389 37.9745 161.466 37.4561 161.886C36.9377 162.305 36.4855 163.067 36.1105 164.171C35.7355 165.275 35.4487 166.711 35.2502 168.51" fill="#EE3442"/>
<path d="M39.5186 132.859L37.0039 155.427L38.7907 157.613L39.8495 148.283L53.6143 164.977L54.0776 161.212L40.2686 144.54L41.3385 135.045L39.5186 132.859Z" fill="#EE3442"/>
<path d="M42.1878 108.911L41.7466 112.831L52.5114 125.418C53.0187 126.003 53.4599 126.665 53.8239 127.383C54.1879 128.101 54.4967 128.895 54.7283 129.724C54.9599 130.552 55.1033 131.446 55.1584 132.373C55.2136 133.301 55.1915 134.272 55.0702 135.266L54.7724 137.695L56.6915 139.958L56.9673 137.706C57.1548 136.149 57.1989 134.593 57.1107 133.058C57.0224 131.523 56.7908 130.033 56.4379 128.631C56.0849 127.228 55.6217 125.892 55.0592 124.7C54.4967 123.508 53.8239 122.448 53.0628 121.564L42.1767 108.878" fill="#EE3442"/>
<path d="M43.8092 91.3564C43.5996 93.2554 43.5445 95.022 43.6107 96.645C43.6768 98.268 43.8754 99.7585 44.1621 101.106C44.4489 102.453 44.857 103.634 45.3313 104.672C45.8055 105.71 46.357 106.582 46.9636 107.277C48.3754 108.911 49.4342 108.812 50.2945 107.796C51.1548 106.781 51.8166 104.859 52.4232 102.872C53.0298 100.885 53.6144 98.8201 54.2982 97.5724C54.9821 96.3248 55.7872 95.8611 56.8681 97.0756C57.3093 97.5835 57.6953 98.2239 58.0042 98.9857C58.313 99.7475 58.5556 100.62 58.7211 101.569C58.8865 102.519 58.9747 103.557 58.9858 104.65C58.9968 105.743 58.9417 106.88 58.7983 108.039C58.6439 109.276 58.4343 110.314 58.1696 111.142C57.9049 111.97 57.6071 112.588 57.2652 112.986C56.9233 113.383 56.5483 113.571 56.1402 113.527C55.7321 113.482 55.313 113.217 54.8828 112.721L54.1438 111.87L53.6696 115.856L54.2872 116.574C55.0041 117.413 55.71 117.921 56.3718 118.097C57.0336 118.274 57.6622 118.12 58.2247 117.612C58.7872 117.104 59.2946 116.265 59.7248 115.061C60.1549 113.858 60.4968 112.29 60.7284 110.358C60.9601 108.426 61.0483 106.527 60.9931 104.76C60.938 102.994 60.7284 101.337 60.4086 99.8358C60.0887 98.3343 59.6475 96.9762 59.1181 95.8059C58.5887 94.6355 57.96 93.6529 57.2652 92.8801C55.7541 91.1908 54.6071 91.2681 53.6696 92.2728C52.7321 93.2775 52.0372 95.1876 51.4085 97.175C50.7798 99.1623 50.2284 101.205 49.5997 102.486C48.971 103.766 48.2761 104.296 47.3717 103.247C47.0077 102.828 46.6879 102.276 46.4232 101.635C46.1585 100.995 45.9489 100.244 45.8055 99.4163C45.6621 98.5882 45.5739 97.6718 45.5629 96.6892C45.5519 95.7065 45.596 94.6466 45.7173 93.5425C45.8497 92.3722 46.0372 91.4006 46.2688 90.6387C46.5004 89.8769 46.7761 89.3028 47.0739 88.9384C47.3717 88.5741 47.7247 88.4085 48.0776 88.4416C48.4306 88.4747 48.8166 88.7176 49.2136 89.1593L49.9967 90.0536L50.46 86.0236L49.7431 85.2177C49.0592 84.4448 48.3975 83.959 47.7688 83.8044C47.1401 83.6498 46.5776 83.8044 46.0592 84.2902C45.5408 84.776 45.0886 85.6041 44.7026 86.7744C44.3165 87.9448 44.0188 89.4794 43.8092 91.3785" fill="#EE3442"/>
<path d="M60.6843 210.245L58.3792 227.645L74.2285 247.85L74.7469 244.328L68.2726 236.103L70.0263 223.627L68.1072 221.22L66.3755 233.696L60.6843 226.475L62.5593 212.586L60.6843 210.245Z" fill="#EE3442"/>
<path d="M61.7983 201.887L61.313 205.53L77.4712 225.669L78.0116 222.015L61.7983 201.887Z" fill="#EE3442"/>
<path d="M63.7174 184.774C63.4747 186.617 63.3865 188.384 63.4306 190.062C63.4747 191.74 63.6622 193.319 63.9821 194.799C64.3019 196.278 64.7431 197.636 65.3056 198.884C65.8681 200.131 66.5409 201.236 67.335 202.207L73.8976 210.311C74.6917 211.294 75.4528 211.945 76.1586 212.265C76.8645 212.586 77.5263 212.552 78.1219 212.177C78.7175 211.802 79.2469 211.062 79.6881 209.969C80.1293 208.876 80.5043 207.396 80.78 205.553C81.0557 203.709 81.166 201.909 81.1219 200.198C81.0778 198.486 80.8903 196.852 80.5704 195.34C80.2506 193.827 79.7873 192.414 79.2028 191.133C78.6182 189.852 77.9123 188.726 77.1072 187.744L73.3461 183.217L71.7027 195.031L73.6439 197.393L74.7689 189.367L76.4013 191.343C76.9528 192.016 77.427 192.767 77.8131 193.606C78.1991 194.445 78.4969 195.351 78.7065 196.344C78.916 197.338 79.0263 198.398 79.0373 199.535C79.0484 200.672 78.9712 201.887 78.7837 203.179C78.5962 204.471 78.3645 205.464 78.0778 206.215C77.791 206.966 77.4491 207.474 77.0741 207.728C76.6991 207.982 76.2689 208.004 75.7947 207.783C75.3204 207.562 74.813 207.109 74.2616 206.436L68.0078 198.74C67.4674 198.078 67.0042 197.338 66.6292 196.521C66.2542 195.704 65.9674 194.821 65.7689 193.849C65.5703 192.878 65.46 191.84 65.438 190.714C65.4159 189.587 65.4931 188.384 65.6696 187.103C65.8461 185.822 66.0667 184.818 66.3424 184.045C66.6181 183.272 66.938 182.753 67.313 182.477C67.688 182.201 68.1071 182.168 68.5593 182.367C69.0115 182.565 69.5299 183.007 70.0814 183.669L70.7652 184.486L71.2836 180.699L70.4454 179.684C69.6402 178.723 68.8902 178.094 68.1843 177.818C67.4784 177.542 66.8387 177.608 66.2652 178.028C65.6917 178.447 65.1843 179.22 64.7652 180.346C64.3461 181.472 64.0041 182.952 63.7615 184.796" fill="#EE3442"/>
<path d="M69.8719 141.04L69.2322 145.854L81.0668 169.968L66.927 163.277L66.2983 167.936L82.997 187.942L83.5154 184.442L69.905 168.201L84.7397 176.018L85.1698 173.092L72.6624 148.449L86.4272 164.547L86.9566 160.925L69.8719 141.04Z" fill="#EE3442"/>
<path d="M82.1476 140.787L74.4159 126.124L83.5814 130.651L82.1476 140.787ZM72.5629 120.758L71.824 126.345L87.6072 156.487L88.1807 152.556L84.0336 144.463L85.8425 131.766L90.894 134.052L91.4896 129.955L72.5629 120.769" fill="#EE3442"/>
<path d="M88.7983 240.221C88.5336 241.932 88.4233 243.566 88.4675 245.101C88.5116 246.636 88.677 248.071 88.9748 249.396C89.2726 250.721 89.6697 251.935 90.155 253.017C90.6403 254.099 91.2248 255.049 91.8645 255.855C93.3535 257.732 94.5006 257.897 95.4491 257.169C96.3977 256.44 97.1477 254.806 97.8536 253.106C98.5595 251.405 99.2212 249.628 99.9933 248.623C100.765 247.618 101.637 247.398 102.773 248.8C103.247 249.385 103.633 250.081 103.953 250.864C104.273 251.648 104.504 252.521 104.67 253.459C104.835 254.398 104.901 255.38 104.89 256.396C104.879 257.412 104.791 258.461 104.615 259.509C104.427 260.625 104.173 261.541 103.876 262.248C103.578 262.954 103.236 263.451 102.85 263.738C102.464 264.025 102.056 264.102 101.626 263.959C101.195 263.815 100.743 263.462 100.28 262.888L99.508 261.916L98.9124 265.516L99.5631 266.344C100.324 267.304 101.074 267.956 101.78 268.276C102.486 268.596 103.17 268.618 103.787 268.287C104.405 267.956 104.968 267.293 105.453 266.278C105.938 265.262 106.335 263.882 106.644 262.148C106.953 260.415 107.074 258.648 107.041 256.992C107.008 255.336 106.832 253.735 106.523 252.256C106.214 250.776 105.762 249.396 105.221 248.17C104.681 246.945 104.019 245.874 103.28 244.98C101.681 243.025 100.445 242.816 99.4197 243.522C98.394 244.229 97.5999 245.83 96.8719 247.53C96.144 249.23 95.5043 250.986 94.7984 252.035C94.0925 253.084 93.3315 253.393 92.3719 252.189C91.9859 251.704 91.644 251.118 91.3792 250.445C91.1145 249.771 90.905 249.032 90.7616 248.226C90.6182 247.42 90.552 246.536 90.552 245.62C90.552 244.704 90.6292 243.732 90.7947 242.727C90.9601 241.667 91.1807 240.817 91.4454 240.155C91.7101 239.492 92.019 239.029 92.3609 238.764C92.7028 238.499 93.0668 238.421 93.4528 238.554C93.8388 238.686 94.2469 238.995 94.666 239.503L95.4933 240.519L96.0778 236.876L95.3168 235.948C94.5888 235.054 93.894 234.447 93.2212 234.137C92.5484 233.828 91.9307 233.828 91.3572 234.16C90.7837 234.491 90.2763 235.142 89.8351 236.147C89.3939 237.152 89.041 238.499 88.7653 240.221" fill="#EE3442"/>
<path d="M92.9896 213.347C92.7029 215.213 92.5705 217.013 92.6036 218.735C92.6367 220.458 92.8132 222.07 93.133 223.593C93.4529 225.117 93.9161 226.53 94.5117 227.822C95.1073 229.114 95.8242 230.284 96.6625 231.322L103.677 239.923C104.526 240.972 105.343 241.678 106.104 242.032C106.865 242.385 107.582 242.396 108.232 242.032C108.883 241.667 109.468 240.95 109.964 239.846C110.46 238.742 110.891 237.262 111.21 235.385C111.53 233.508 111.685 231.686 111.674 229.931C111.663 228.175 111.486 226.508 111.155 224.951C110.824 223.395 110.35 221.926 109.732 220.601C109.115 219.276 108.376 218.073 107.504 217.035L106.313 215.6L105.652 219.574L106.666 220.789C107.262 221.507 107.769 222.291 108.177 223.141C108.585 223.991 108.894 224.918 109.104 225.912C109.313 226.906 109.424 227.988 109.424 229.136C109.424 230.284 109.313 231.521 109.093 232.835C108.872 234.149 108.596 235.197 108.265 235.959C107.935 236.721 107.571 237.218 107.152 237.45C106.732 237.682 106.28 237.671 105.773 237.417C105.265 237.163 104.725 236.666 104.14 235.948L97.4456 227.778C96.872 227.071 96.3757 226.298 95.9786 225.459C95.5816 224.62 95.2838 223.704 95.0742 222.721C94.8647 221.739 94.7654 220.668 94.7654 219.508C94.7654 218.349 94.8647 217.112 95.0742 215.776C95.2838 214.44 95.5375 213.447 95.8463 212.685C96.1551 211.923 96.5081 211.426 96.9161 211.183C97.3242 210.941 97.7764 210.941 98.2728 211.183C98.7691 211.426 99.3095 211.912 99.8941 212.608L100.898 213.811L101.537 209.836L100.357 208.434C99.497 207.407 98.6809 206.734 97.9198 206.414C97.1588 206.094 96.4639 206.127 95.8242 206.535C95.1845 206.944 94.633 207.694 94.1588 208.832C93.6845 209.969 93.2874 211.459 93.0007 213.325" fill="#EE3442"/>
<path d="M97.3132 185.723C97.0264 187.578 96.9051 189.333 96.9382 190.968C96.9713 192.602 97.1477 194.114 97.4455 195.505C97.7433 196.896 98.1624 198.144 98.6698 199.259C99.1772 200.374 99.7838 201.335 100.457 202.13C102.023 203.996 103.225 204.062 104.229 203.201C105.232 202.34 106.037 200.518 106.788 198.641C107.538 196.764 108.254 194.799 109.06 193.661C109.865 192.524 110.802 192.193 112.004 193.595C112.501 194.169 112.909 194.876 113.24 195.682C113.571 196.488 113.824 197.404 113.979 198.376C114.133 199.348 114.221 200.407 114.199 201.489C114.177 202.572 114.089 203.709 113.891 204.835C113.681 206.049 113.416 207.043 113.096 207.827C112.777 208.611 112.413 209.174 112.015 209.516C111.618 209.858 111.177 209.98 110.725 209.87C110.273 209.759 109.799 209.428 109.313 208.854L108.497 207.882L107.846 211.769L108.53 212.586C109.324 213.535 110.118 214.164 110.868 214.452C111.618 214.739 112.335 214.683 112.986 214.275C113.637 213.866 114.243 213.105 114.762 211.978C115.28 210.852 115.71 209.351 116.03 207.463C116.35 205.575 116.504 203.687 116.482 201.92C116.46 200.154 116.273 198.464 115.953 196.908C115.633 195.351 115.17 193.926 114.596 192.679C114.023 191.431 113.339 190.338 112.567 189.455C110.89 187.512 109.578 187.401 108.497 188.251C107.416 189.102 106.567 190.89 105.795 192.767C105.023 194.644 104.339 196.587 103.589 197.769C102.839 198.95 102.034 199.359 101.03 198.166C100.622 197.68 100.269 197.084 99.9933 196.4C99.7176 195.715 99.497 194.931 99.3536 194.081C99.2102 193.231 99.1441 192.303 99.1551 191.321C99.1661 190.338 99.2544 189.289 99.4198 188.207C99.5963 187.07 99.8389 186.132 100.115 185.403C100.39 184.674 100.721 184.155 101.085 183.835C101.449 183.515 101.835 183.404 102.243 183.504C102.651 183.603 103.082 183.901 103.512 184.409L104.383 185.425L105.023 181.472L104.229 180.545C103.468 179.662 102.729 179.076 102.023 178.811C101.317 178.546 100.666 178.613 100.06 179.01C99.4529 179.408 98.9124 180.158 98.4492 181.274C97.986 182.389 97.5999 183.857 97.3132 185.712" fill="#EE3442"/>
<path d="M101.725 157.525C101.427 159.457 101.306 161.267 101.328 162.957C101.35 164.646 101.538 166.203 101.846 167.616C102.155 169.029 102.574 170.31 103.104 171.436C103.633 172.562 104.251 173.523 104.935 174.318C106.534 176.173 107.78 176.184 108.806 175.245C109.832 174.307 110.67 172.397 111.442 170.42C112.214 168.444 112.953 166.39 113.791 165.176C114.63 163.961 115.589 163.586 116.813 164.966C117.321 165.54 117.74 166.247 118.082 167.075C118.424 167.903 118.677 168.819 118.843 169.824C119.008 170.829 119.085 171.911 119.063 173.037C119.041 174.163 118.942 175.334 118.744 176.504C118.534 177.763 118.247 178.811 117.916 179.628C117.585 180.446 117.21 181.053 116.791 181.417C116.372 181.781 115.931 181.925 115.468 181.837C115.005 181.748 114.508 181.417 114.023 180.843L113.185 179.882L112.512 183.934L113.218 184.751C114.034 185.701 114.839 186.308 115.611 186.573C116.383 186.838 117.122 186.75 117.795 186.297C118.468 185.845 119.085 185.039 119.626 183.846C120.166 182.654 120.608 181.086 120.949 179.121C121.291 177.155 121.446 175.201 121.424 173.368C121.402 171.536 121.214 169.802 120.883 168.212C120.552 166.622 120.078 165.165 119.494 163.895C118.909 162.625 118.203 161.532 117.409 160.649C115.688 158.728 114.343 158.673 113.229 159.6C112.115 160.528 111.232 162.416 110.438 164.392C109.644 166.368 108.938 168.4 108.166 169.659C107.394 170.917 106.567 171.37 105.541 170.177C105.122 169.692 104.769 169.095 104.482 168.4C104.196 167.704 103.975 166.909 103.832 166.037C103.688 165.165 103.622 164.215 103.622 163.189C103.622 162.162 103.721 161.091 103.898 159.965C104.085 158.772 104.328 157.801 104.626 157.028C104.924 156.255 105.254 155.703 105.618 155.361C105.982 155.018 106.391 154.886 106.81 154.963C107.229 155.04 107.67 155.338 108.111 155.835L108.993 156.84L109.655 152.733L108.839 151.816C108.056 150.933 107.295 150.37 106.578 150.127C105.861 149.884 105.177 149.984 104.56 150.425C103.942 150.867 103.379 151.662 102.905 152.832C102.431 154.003 102.023 155.537 101.725 157.469" fill="#EE3442"/>
<path d="M120.762 266.322L120.078 270.02L128.24 280.123L125.615 293.891L117.552 283.777L116.902 287.388L135.001 310.176L135.729 306.566L127.777 296.607L130.435 282.839L138.486 292.798L139.225 289.088L120.762 266.322Z" fill="#EE3442"/>
<path d="M125.637 239.713L121.435 262.601L123.586 265.229L125.328 255.789L141.872 275.894L142.634 272.085L126.034 251.98L127.821 242.341L125.637 239.713Z" fill="#EE3442"/>
<path d="M131.372 208.412L130.479 213.303L143.659 239.691L127.225 231.057L126.354 235.794L145.358 258.494L146.074 254.95L130.567 236.5L147.795 246.393L148.391 243.412L134.416 216.406L150.133 234.701L150.872 231.024L131.372 208.412Z" fill="#EE3442"/>
<path d="M133.413 197.305L132.663 201.39L152.284 223.991L156.398 203.466L153.972 200.739L150.718 217.146L133.413 197.305Z" fill="#EE3442"/>
<path d="M155.648 289.309C155.251 291.197 155.042 293.03 155.02 294.796C154.997 296.563 155.163 298.252 155.494 299.864C155.825 301.476 156.321 302.989 156.983 304.402C157.645 305.815 158.45 307.118 159.398 308.288L167.373 318.07C168.343 319.263 169.281 320.102 170.163 320.566C171.045 321.029 171.895 321.14 172.667 320.853C173.439 320.566 174.156 319.903 174.773 318.843C175.391 317.783 175.942 316.304 176.384 314.416C176.825 312.528 177.056 310.662 177.101 308.862C177.145 307.063 176.979 305.318 176.648 303.662C176.317 302.006 175.799 300.438 175.115 298.992C174.431 297.545 173.593 296.209 172.601 295.017L171.233 293.383L170.328 297.391L171.476 298.782C172.148 299.599 172.722 300.471 173.174 301.399C173.626 302.326 173.968 303.32 174.189 304.38C174.409 305.44 174.498 306.555 174.453 307.747C174.409 308.94 174.244 310.187 173.935 311.512C173.626 312.837 173.273 313.875 172.865 314.626C172.457 315.376 172.005 315.829 171.509 316.017C171.012 316.205 170.472 316.127 169.887 315.796C169.303 315.465 168.674 314.88 168.012 314.063L160.402 304.755C159.74 303.949 159.189 303.099 158.759 302.183C158.328 301.266 157.986 300.284 157.777 299.246C157.567 298.208 157.479 297.093 157.501 295.9C157.523 294.708 157.689 293.449 157.975 292.102C158.262 290.755 158.593 289.773 158.979 289.033C159.365 288.293 159.795 287.829 160.281 287.631C160.766 287.432 161.295 287.498 161.869 287.807C162.442 288.116 163.071 288.691 163.733 289.497L164.869 290.866L165.751 286.858L164.417 285.257C163.446 284.087 162.498 283.281 161.615 282.85C160.733 282.419 159.906 282.364 159.145 282.695C158.384 283.027 157.711 283.733 157.115 284.837C156.52 285.941 156.012 287.421 155.615 289.309" fill="#EE3442"/>
<path d="M161.593 261.42C161.196 263.297 161.009 265.085 160.986 266.774C160.964 268.464 161.141 270.043 161.45 271.511C161.759 272.979 162.211 274.326 162.773 275.53C163.336 276.733 164.02 277.815 164.792 278.721C166.578 280.852 167.99 281.072 169.203 280.311C170.417 279.549 171.42 277.782 172.369 275.949C173.317 274.117 174.211 272.184 175.215 271.113C176.218 270.043 177.321 269.833 178.689 271.423C179.251 272.085 179.715 272.869 180.09 273.741C180.465 274.613 180.718 275.585 180.884 276.623C181.049 277.661 181.104 278.743 181.049 279.869C180.994 280.995 180.84 282.143 180.575 283.281C180.288 284.506 179.946 285.5 179.538 286.262C179.13 287.023 178.689 287.553 178.204 287.863C177.718 288.172 177.2 288.227 176.67 288.05C176.141 287.874 175.59 287.465 175.038 286.814L174.101 285.699L173.207 289.618L173.99 290.557C174.906 291.639 175.81 292.389 176.681 292.787C177.553 293.184 178.402 293.228 179.196 292.897C179.99 292.566 180.718 291.859 181.358 290.766C181.998 289.673 182.56 288.183 183.001 286.273C183.443 284.363 183.674 282.441 183.707 280.609C183.74 278.776 183.575 277.009 183.244 275.364C182.913 273.719 182.406 272.184 181.777 270.815C181.148 269.446 180.365 268.232 179.483 267.227C177.564 265.008 176.02 264.721 174.718 265.461C173.417 266.2 172.358 267.934 171.387 269.766C170.417 271.599 169.556 273.52 168.63 274.636C167.703 275.751 166.755 276.071 165.608 274.713C165.145 274.161 164.748 273.498 164.439 272.759C164.13 272.019 163.898 271.18 163.755 270.285C163.611 269.391 163.556 268.419 163.6 267.404C163.645 266.388 163.777 265.317 164.009 264.224C164.262 263.076 164.571 262.137 164.924 261.42C165.277 260.702 165.685 260.205 166.115 259.929C166.545 259.653 167.009 259.587 167.494 259.741C167.979 259.896 168.464 260.26 168.961 260.834L169.953 261.994L170.825 257.997L169.92 256.937C169.049 255.921 168.2 255.226 167.373 254.861C166.545 254.497 165.773 254.475 165.056 254.817C164.339 255.159 163.678 255.855 163.093 256.948C162.509 258.041 162.012 259.498 161.615 261.375" fill="#EE3442"/>
<path d="M167.67 232.879C167.251 234.833 167.053 236.688 167.042 238.443C167.031 240.199 167.185 241.822 167.505 243.324C167.825 244.825 168.277 246.194 168.861 247.42C169.446 248.645 170.141 249.716 170.924 250.633C172.755 252.752 174.222 252.929 175.468 252.09C176.714 251.251 177.762 249.385 178.744 247.442C179.725 245.499 180.663 243.467 181.689 242.319C182.714 241.171 183.862 240.894 185.262 242.484C185.847 243.147 186.321 243.931 186.696 244.825C187.071 245.719 187.336 246.713 187.501 247.773C187.667 248.833 187.722 249.959 187.667 251.118C187.612 252.278 187.446 253.47 187.17 254.663C186.873 255.943 186.509 256.981 186.101 257.787C185.692 258.593 185.218 259.167 184.722 259.498C184.226 259.83 183.685 259.918 183.145 259.763C182.604 259.609 182.031 259.211 181.468 258.56L180.509 257.456L179.582 261.563L180.387 262.502C181.325 263.584 182.262 264.323 183.156 264.688C184.049 265.052 184.931 265.063 185.748 264.688C186.564 264.312 187.314 263.55 187.987 262.391C188.659 261.232 189.233 259.664 189.696 257.677C190.159 255.689 190.402 253.691 190.446 251.792C190.49 249.893 190.314 248.082 189.983 246.393C189.652 244.704 189.134 243.147 188.472 241.756C187.81 240.365 187.016 239.15 186.112 238.134C184.137 235.926 182.549 235.694 181.192 236.511C179.836 237.328 178.744 239.172 177.74 241.104C176.736 243.036 175.832 245.057 174.884 246.26C173.935 247.464 172.942 247.828 171.762 246.47C171.277 245.918 170.88 245.256 170.56 244.494C170.24 243.732 170.008 242.893 169.865 241.965C169.722 241.038 169.667 240.044 169.711 238.995C169.755 237.947 169.898 236.842 170.141 235.694C170.406 234.491 170.725 233.508 171.089 232.757C171.453 232.007 171.872 231.477 172.325 231.167C172.777 230.858 173.251 230.77 173.748 230.914C174.244 231.057 174.751 231.41 175.259 231.984L176.273 233.133L177.189 228.97L176.251 227.921C175.358 226.917 174.475 226.221 173.637 225.89C172.799 225.559 171.994 225.559 171.244 225.945C170.494 226.332 169.821 227.082 169.214 228.231C168.608 229.379 168.089 230.914 167.67 232.879Z" fill="#EE3442"/>
<path d="M84.872 530.553C84.7507 531.105 84.5963 531.591 84.4088 532.021C84.2213 532.452 84.0227 532.827 83.7911 533.136C83.5595 533.446 83.3058 533.699 83.0301 533.898C82.7543 534.097 82.4676 534.229 82.1588 534.307C82.0264 533.898 81.872 533.479 81.7176 533.048C81.5632 532.617 81.3867 532.187 81.2102 531.745C81.0337 531.304 80.8352 530.851 80.6367 530.398C80.4382 529.946 80.2286 529.482 80.008 529.029C80.1404 528.775 80.2617 528.488 80.383 528.19C80.5043 527.892 80.6146 527.572 80.7249 527.241C80.8352 526.909 80.9345 526.545 81.0337 526.17C81.133 525.794 81.2212 525.397 81.3095 524.988L84.861 530.542M85.0264 529.736L81.4639 524.171C81.5411 523.741 81.6073 523.31 81.6624 522.868C81.7176 522.427 81.7727 521.985 81.8058 521.532C81.8389 521.08 81.883 520.627 81.9051 520.174C81.9271 519.722 81.9382 519.258 81.9492 518.794C82.2029 519.07 82.4566 519.324 82.6992 519.567C82.9419 519.81 83.1845 520.02 83.4161 520.219C83.6477 520.417 83.8683 520.594 84.0889 520.737C84.3095 520.881 84.508 521.024 84.7066 521.124C84.85 521.919 84.9713 522.714 85.0595 523.487C85.1477 524.259 85.2029 525.01 85.236 525.739C85.2691 526.468 85.2691 527.163 85.236 527.837C85.2029 528.51 85.1367 529.14 85.0374 529.736M85.5669 531.094C85.8095 529.868 85.9088 528.466 85.8757 526.942C85.8426 525.419 85.6882 523.796 85.4125 522.107C85.1367 520.417 84.7507 518.673 84.2544 516.917C83.758 515.162 83.1735 513.428 82.4896 511.739C83.0521 512.788 83.5926 513.848 84.122 514.908C84.6514 515.968 85.1477 517.05 85.622 518.132C86.0963 519.214 86.5595 520.296 86.9786 521.378C87.3978 522.46 87.8058 523.531 88.1809 524.602C88.7213 526.159 89.1845 527.649 89.5595 529.051C89.9345 530.453 90.2323 531.778 90.4309 532.993C90.6294 534.207 90.7507 535.322 90.7838 536.327C90.8169 537.332 90.7507 538.204 90.5963 538.955C90.4419 539.706 90.2103 540.302 89.8904 540.755C89.5706 541.207 89.1735 541.494 88.6992 541.638C88.225 541.781 87.6735 541.77 87.0558 541.605C86.4382 541.439 85.7544 541.13 85.0154 540.655C84.508 540.335 83.9786 539.949 83.4382 539.496C82.8977 539.043 82.3463 538.546 81.7727 537.972C81.1992 537.398 80.6257 536.791 80.0411 536.117C79.4565 535.444 78.8609 534.726 78.2653 533.942C79.1036 534.66 79.9198 535.146 80.6918 535.4C81.4639 535.654 82.1698 535.665 82.8095 535.433C83.4492 535.201 84.0117 534.726 84.4749 534.009C84.9382 533.291 85.3022 532.308 85.5448 531.083M81.6624 534.373C81.2985 534.395 80.9235 534.351 80.5264 534.229C80.1293 534.108 79.7212 533.931 79.3021 533.677C78.883 533.423 78.4528 533.103 78.0117 532.717C77.5705 532.33 77.1293 531.878 76.6771 531.359C76.9418 531.436 77.2175 531.458 77.4822 531.414C77.747 531.37 78.0117 531.281 78.2653 531.127C78.519 530.972 78.7727 530.774 79.0043 530.509C79.2359 530.244 79.4786 529.935 79.6992 529.559C79.8977 529.979 80.0852 530.398 80.2727 530.818C80.4602 531.237 80.6257 531.646 80.7911 532.043C80.9565 532.441 81.1109 532.838 81.2543 533.236C81.3977 533.633 81.5411 534.009 81.6624 534.384M84.4529 519.909C84.2764 519.81 84.0889 519.689 83.8904 519.545C83.6918 519.401 83.4933 519.247 83.2838 519.07C83.0742 518.894 82.8536 518.695 82.633 518.474C82.4124 518.253 82.1808 518.021 81.9492 517.767C81.9492 517.017 81.9051 516.266 81.8499 515.537C81.7948 514.808 81.7176 514.069 81.6293 513.351C81.5411 512.633 81.4198 511.938 81.2874 511.264C81.1551 510.591 81.0007 509.928 80.8242 509.31C81.2323 510.138 81.6073 510.988 81.9713 511.849C82.3352 512.711 82.6661 513.605 82.9639 514.499C83.2617 515.394 83.5485 516.299 83.8022 517.204C84.0558 518.11 84.2764 519.015 84.4639 519.909M79.1808 528.466C78.872 528.996 78.53 529.405 78.1881 529.703C77.8462 530.001 77.4822 530.177 77.1183 530.222C76.7543 530.266 76.3793 530.199 76.0153 530.001C75.6513 529.802 75.2874 529.471 74.9344 528.996L76.0705 522.89C76.3572 523.343 76.633 523.796 76.9087 524.259C77.1845 524.723 77.4492 525.187 77.7139 525.651C77.9786 526.114 78.2323 526.589 78.4749 527.053C78.7176 527.517 78.9602 527.991 79.1918 528.455M80.7359 524.05C80.6587 524.447 80.5705 524.823 80.4712 525.176C80.372 525.529 80.2837 525.871 80.1734 526.192C80.0632 526.512 79.9639 526.821 79.8426 527.097C79.7212 527.373 79.6109 527.649 79.4896 527.892C79.247 527.406 78.9933 526.909 78.7396 526.424C78.4859 525.938 78.2102 525.441 77.9455 524.955C77.6808 524.469 77.394 523.983 77.1072 523.498C76.8205 523.012 76.5337 522.537 76.2359 522.062L76.9639 518.143L80.747 524.05M80.9014 523.233L77.1183 517.326L77.8462 513.373C78.144 513.837 78.4418 514.279 78.7506 514.698C79.0595 515.118 79.3462 515.537 79.644 515.935C79.9418 516.332 80.2286 516.707 80.5154 517.061C80.8021 517.414 81.0889 517.756 81.3646 518.088C81.3646 518.529 81.3426 518.96 81.3205 519.401C81.2985 519.843 81.2654 520.274 81.2323 520.704C81.1992 521.135 81.144 521.565 81.0889 521.985C81.0337 522.405 80.9676 522.824 80.9014 523.233ZM81.3646 517.072C81.0999 516.763 80.8242 516.443 80.5595 516.1C80.2948 515.758 80.008 515.394 79.7212 515.018C79.4345 514.643 79.1587 514.245 78.872 513.837C78.5852 513.428 78.2984 512.998 78.0117 512.567L79.1808 506.274C79.5117 506.881 79.8205 507.599 80.0852 508.394C80.3499 509.189 80.5705 510.061 80.758 510.999C80.9455 511.938 81.0889 512.92 81.1882 513.947C81.2874 514.974 81.3536 516.023 81.3646 517.083M74.383 528.091C74.0521 527.483 73.7653 526.777 73.5006 526.004C73.2359 525.231 73.0263 524.37 72.8388 523.453C72.6513 522.537 72.5079 521.577 72.4087 520.583C72.3094 519.589 72.2432 518.551 72.2212 517.513C72.4749 517.812 72.7396 518.132 73.0043 518.474C73.269 518.816 73.5447 519.17 73.8205 519.545C74.0962 519.92 74.3719 520.307 74.6587 520.715C74.9455 521.124 75.2212 521.543 75.508 521.985L74.383 528.091ZM77.4161 511.651C77.1293 511.198 76.8536 510.734 76.5778 510.282C76.3021 509.829 76.0374 509.354 75.7727 508.891C75.508 508.427 75.2543 507.963 75.0116 507.488C74.769 507.014 74.5263 506.561 74.2947 506.097C74.6035 505.545 74.9344 505.104 75.2874 504.794C75.6403 504.485 75.9933 504.275 76.3683 504.209C76.7433 504.143 77.1072 504.187 77.4822 504.386C77.8572 504.585 78.2323 504.905 78.5852 505.368L77.4271 511.662M75.6624 521.19C75.3646 520.737 75.0668 520.296 74.78 519.865C74.4933 519.435 74.1955 519.026 73.9087 518.64C73.6219 518.253 73.3352 517.878 73.0594 517.525C72.7837 517.171 72.5079 516.84 72.2322 516.52C72.2322 516.089 72.2432 515.659 72.2653 515.228C72.2874 514.797 72.3094 514.367 72.3425 513.936C72.3756 513.506 72.4197 513.086 72.4749 512.667C72.53 512.247 72.5852 511.827 72.6513 511.419L76.3903 517.271L75.6624 521.201M76.5337 516.454L72.7837 510.602C72.8609 510.204 72.9491 509.829 73.0374 509.465C73.1256 509.1 73.2249 508.758 73.3241 508.427C73.4234 508.096 73.5337 507.786 73.644 507.499C73.7543 507.212 73.8756 506.936 73.9969 506.682C74.2396 507.168 74.4932 507.654 74.7469 508.14C75.0006 508.626 75.2763 509.111 75.5411 509.608C75.8058 510.105 76.0925 510.58 76.3793 511.066C76.6661 511.551 76.9528 512.026 77.2506 512.501L76.5227 516.454M72.7285 525.121C72.3425 524.315 71.9675 523.476 71.6256 522.625C71.2837 521.775 70.9528 520.914 70.655 520.042C70.3572 519.17 70.0815 518.286 69.8388 517.403C69.5962 516.52 69.3756 515.648 69.1991 514.775C69.3645 514.875 69.552 514.985 69.7395 515.118C69.927 515.25 70.1256 515.405 70.3241 515.581C70.5226 515.758 70.7322 515.946 70.9528 516.155C71.1734 516.365 71.394 516.597 71.6146 516.84C71.6256 517.58 71.6587 518.308 71.7138 519.026C71.769 519.744 71.8462 520.461 71.9344 521.157C72.0226 521.853 72.144 522.537 72.2763 523.188C72.4087 523.84 72.5631 524.491 72.7285 525.099M76.7653 503.006C76.4896 502.939 76.2249 502.939 75.9491 502.984C75.6734 503.028 75.4197 503.149 75.1661 503.315C74.9124 503.48 74.6587 503.712 74.4271 503.988C74.1955 504.264 73.9638 504.607 73.7432 504.993C73.5447 504.574 73.3572 504.154 73.1697 503.745C72.9822 503.337 72.8168 502.928 72.6513 502.531C72.4859 502.133 72.3315 501.736 72.1881 501.35C72.0447 500.963 71.9124 500.588 71.78 500.212C72.1329 500.168 72.5079 500.19 72.894 500.279C73.28 500.367 73.6881 500.533 74.1072 500.764C74.5263 500.996 74.9565 501.305 75.4087 501.67C75.8609 502.034 76.3021 502.487 76.7653 502.995M71.6035 515.813C71.3609 515.548 71.1182 515.294 70.8756 515.062C70.6329 514.831 70.4123 514.621 70.1917 514.433C69.9712 514.245 69.7616 514.08 69.552 513.925C69.3425 513.771 69.155 513.649 68.9675 513.55C68.8241 512.766 68.7138 512.004 68.6145 511.242C68.5153 510.48 68.4601 509.752 68.427 509.034C68.3939 508.316 68.3829 507.632 68.416 506.969C68.4491 506.307 68.4932 505.667 68.5814 505.07L72.0447 510.48C71.9785 510.911 71.9124 511.342 71.8572 511.783C71.8021 512.225 71.7579 512.667 71.7248 513.108C71.6918 513.55 71.6587 514.002 71.6366 514.455C71.6146 514.908 71.6035 515.361 71.6035 515.802M73.4565 505.556C73.3241 505.821 73.2028 506.108 73.0925 506.417C72.9822 506.727 72.8609 507.047 72.7616 507.389C72.6624 507.731 72.5521 508.096 72.4638 508.471C72.3756 508.846 72.2874 509.244 72.1991 509.663L68.7359 504.253C68.8462 503.701 69.0006 503.204 69.166 502.763C69.3314 502.321 69.53 501.935 69.7506 501.615C69.9712 501.294 70.2138 501.018 70.4785 500.798C70.7432 500.577 71.03 500.422 71.3278 500.323C71.4601 500.731 71.6146 501.151 71.769 501.57C71.9234 501.99 72.0999 502.432 72.2763 502.862C72.4528 503.293 72.6403 503.745 72.8388 504.198C73.0374 504.651 73.2469 505.104 73.4675 505.556M71.1513 522.681C70.6109 521.654 70.0925 520.627 69.5851 519.589C69.0778 518.551 68.6035 517.513 68.1513 516.465C67.6991 515.416 67.2579 514.378 66.8498 513.34C66.4417 512.302 66.0557 511.264 65.7027 510.238C65.1844 508.736 64.7432 507.301 64.3792 505.943C64.0152 504.585 63.7285 503.315 63.5189 502.122C63.3093 500.93 63.188 499.848 63.1439 498.865C63.0998 497.883 63.1439 496.999 63.2763 496.249C63.4086 495.498 63.6182 494.869 63.9049 494.394C64.1917 493.919 64.5667 493.588 65.0079 493.4C65.4491 493.212 65.9675 493.168 66.552 493.279C67.1366 493.389 67.7873 493.643 68.5153 494.063C69.0116 494.35 69.5189 494.692 70.0484 495.1C70.5778 495.509 71.1293 495.984 71.6807 496.514C72.2322 497.044 72.8168 497.64 73.4013 498.291C73.9859 498.943 74.5815 499.649 75.1881 500.4C74.3388 499.716 73.5227 499.274 72.7727 499.075C72.0226 498.876 71.3168 498.91 70.6881 499.197C70.0594 499.484 69.53 499.992 69.0888 500.753C68.6476 501.515 68.3057 502.509 68.0961 503.745C67.8866 504.982 67.7983 506.373 67.8425 507.875C67.8866 509.376 68.052 510.966 68.3278 512.611C68.6035 514.256 68.9895 515.957 69.4638 517.657C69.9381 519.357 70.5116 521.047 71.1734 522.692M62.824 495.509C62.5373 497.198 62.6476 499.406 63.0998 501.957C63.552 504.507 64.3241 507.378 65.3719 510.425C66.4197 513.472 67.7542 516.685 69.2984 519.898C70.8425 523.111 72.6072 526.335 74.5374 529.371C76.4675 532.408 78.3867 535.013 80.1845 537.067C81.9823 539.121 83.7029 540.677 85.2139 541.638C86.725 542.598 88.0375 542.963 89.0632 542.676C90.089 542.389 90.8169 541.428 91.1588 539.75C91.5007 538.072 91.4125 535.83 90.9713 533.203C90.5301 530.575 89.714 527.594 88.611 524.414C87.5081 521.234 86.1183 517.911 84.497 514.588C82.8757 511.264 81.0448 507.996 79.0595 504.927C77.0742 501.857 75.144 499.329 73.3352 497.331C71.5263 495.332 69.8498 493.919 68.3939 493.08C66.938 492.241 65.6917 492.009 64.7321 492.395C63.7726 492.782 63.1218 493.809 62.8351 495.509" fill="#EE3442"/>
<path d="M98.5927 550.007L97.7986 551.619L96.089 548.947L96.8611 547.313L98.5817 550.007M92.9125 543.99L92.4383 546.297L93.3868 547.788L92.4272 549.83L94.2802 552.745L95.2508 550.702L96.9604 553.385L95.9898 555.428L97.8648 558.376L98.8464 556.344L100.038 558.21L100.534 555.903L99.6846 554.578L100.479 552.966L101.703 554.876L102.199 552.557L101.328 551.199L102.332 549.135L100.413 546.165L99.4199 548.229L97.6993 545.557L98.692 543.493L96.7949 540.545L95.8133 542.62L94.5339 540.633L94.0486 542.963L94.9751 544.409L94.192 546.032L92.9015 544.012" fill="#EE3442"/>
<path d="M101.857 559.06L101.769 559.48C101.637 560.065 101.615 560.75 101.67 561.489C101.725 562.229 101.89 563.046 102.122 563.896C102.354 564.747 102.696 565.641 103.115 566.546C103.534 567.452 104.03 568.379 104.615 569.295C105.199 570.212 105.729 570.907 106.214 571.415C106.699 571.923 107.14 572.243 107.515 572.376C107.89 572.508 108.221 572.464 108.475 572.254C108.729 572.045 108.927 571.658 109.049 571.117C109.291 570.024 109.148 568.765 108.795 567.452C108.442 566.138 107.879 564.802 107.295 563.532C106.71 562.262 106.115 561.081 105.696 560.109C105.276 559.138 105.012 558.354 105.111 557.901C105.155 557.702 105.232 557.592 105.332 557.548C105.431 557.504 105.563 557.548 105.707 557.636C105.85 557.724 106.015 557.89 106.192 558.1C106.368 558.31 106.556 558.564 106.743 558.862C106.953 559.193 107.151 559.535 107.317 559.877C107.482 560.22 107.637 560.562 107.747 560.882C107.857 561.202 107.946 561.512 107.99 561.776C108.034 562.041 108.034 562.284 107.99 562.472L107.846 563.101L109.909 566.314L110.041 565.751C110.162 565.21 110.207 564.592 110.162 563.918C110.118 563.245 109.986 562.505 109.765 561.71C109.545 560.915 109.236 560.087 108.828 559.204C108.42 558.321 107.924 557.415 107.317 556.488C106.71 555.56 106.159 554.832 105.673 554.335C105.188 553.838 104.769 553.562 104.416 553.463C104.063 553.363 103.776 553.441 103.545 553.672C103.313 553.904 103.148 554.28 103.037 554.777C102.795 555.87 102.96 557.106 103.324 558.365C103.688 559.624 104.251 560.926 104.835 562.174C105.42 563.422 106.015 564.592 106.435 565.597C106.854 566.601 107.096 567.44 106.975 568.004C106.92 568.246 106.821 568.368 106.699 568.412C106.578 568.456 106.423 568.401 106.258 568.28C106.093 568.158 105.905 567.981 105.729 567.772C105.552 567.562 105.365 567.297 105.188 567.032C104.957 566.668 104.736 566.281 104.548 565.884C104.361 565.486 104.185 565.1 104.052 564.713C103.92 564.327 103.821 563.974 103.765 563.642C103.71 563.311 103.71 563.024 103.765 562.803L103.898 562.207L101.868 559.038" fill="#EE3442"/>
<path d="M112.104 564.294L109.346 576.395L111.199 579.309L113.008 571.437V582.147L114.486 584.466L118.17 579.431L116.306 587.314L118.181 590.273L121.071 578.227L118.424 574.12L114.894 578.393L114.707 568.346L112.104 564.294Z" fill="#EE3442"/>
<path d="M264.09 250.732C260.153 251.626 256.447 252.929 253.05 254.563C249.652 256.197 246.575 258.185 243.895 260.426C241.215 262.667 238.932 265.151 237.123 267.834C235.314 270.517 233.991 273.344 233.196 276.281L226.711 300.35C225.95 303.176 225.851 305.594 226.38 307.571C226.91 309.547 228.046 311.071 229.755 312.119C231.465 313.168 233.737 313.742 236.538 313.809C239.34 313.875 242.638 313.433 246.443 312.451C250.248 311.468 253.7 310.154 256.888 308.564C260.075 306.974 262.943 305.086 265.458 302.989C267.972 300.891 270.123 298.561 271.866 296.066C273.609 293.571 274.932 290.899 275.781 288.128L277.37 282.905L263.803 286.251L262.425 290.932C262.083 292.091 261.542 293.206 260.814 294.255C260.086 295.304 259.182 296.276 258.101 297.159C257.02 298.042 255.763 298.848 254.34 299.533C252.917 300.217 251.329 300.791 249.586 301.233C247.733 301.708 246.145 301.929 244.844 301.929C243.542 301.929 242.494 301.708 241.733 301.288C240.972 300.869 240.476 300.228 240.255 299.411C240.035 298.594 240.09 297.59 240.421 296.419L246.774 273.642C247.116 272.427 247.678 271.257 248.45 270.153C249.222 269.049 250.215 268.022 251.395 267.084C252.575 266.145 253.954 265.317 255.509 264.599C257.064 263.882 258.807 263.297 260.704 262.855C262.469 262.446 263.969 262.281 265.193 262.336C266.417 262.391 267.377 262.678 268.083 263.175C268.789 263.672 269.208 264.356 269.373 265.218C269.539 266.079 269.45 267.128 269.097 268.331L267.686 273.123L281.362 269.844L282.995 264.478C283.877 261.596 284.109 259.079 283.734 256.981C283.359 254.883 282.355 253.183 280.767 251.969C279.178 250.754 276.962 249.992 274.182 249.771C271.403 249.551 268.017 249.849 264.101 250.743" fill="#EE3442"/>
<path d="M300.918 268.044L305.528 253.558L318.278 250.577C319.116 250.379 319.833 250.312 320.44 250.368C321.046 250.423 321.51 250.599 321.852 250.909C322.194 251.218 322.392 251.626 322.436 252.167C322.48 252.708 322.392 253.36 322.138 254.133L320.55 258.924C320.296 259.686 319.944 260.393 319.491 261.044C319.039 261.696 318.51 262.281 317.903 262.8C317.296 263.319 316.613 263.771 315.874 264.136C315.135 264.5 314.33 264.798 313.469 265.008L300.907 268.044M321.234 238.951L296.285 244.626L278.164 303.143L290.759 299.897L297.267 279.483L307.414 276.976L308.738 295.271L321.366 292.014L320.429 271.467C321.918 270.473 323.308 269.38 324.609 268.188C325.91 266.995 327.102 265.726 328.194 264.368C329.286 263.009 330.245 261.574 331.072 260.073C331.9 258.571 332.605 257.003 333.157 255.38L334.381 251.759C335.252 249.175 335.594 246.923 335.429 245.046C335.264 243.169 334.591 241.634 333.455 240.508C332.319 239.382 330.697 238.664 328.646 238.399C326.594 238.134 324.113 238.3 321.234 238.951Z" fill="#EE3442"/>
<path d="M383.076 224.874L347.275 233.022L327.51 290.424L362.242 281.459L366.212 270.672L343.26 276.457L347.021 265.792L367.095 260.845L371.187 249.683L350.992 254.552L355.458 241.877L378.83 236.412L383.076 224.874Z" fill="#EE3442"/>
<path d="M389.86 255.932L404.297 232.073L401.385 253.084L389.871 255.932M417.577 217.024L401.187 220.756L365.297 280.675L376.481 277.793L382.812 267.536L400.062 263.175L398.981 271.986L409.79 269.192L417.577 217.024Z" fill="#EE3442"/>
<path d="M467.43 205.674L429.599 214.286L425.088 225.592L438.72 222.401L420.797 266.344L431.474 263.595L449.628 219.851L462.72 216.792L467.43 205.674Z" fill="#EE3442"/>
<path d="M482.011 202.351L471.434 204.758L448.195 259.278L458.518 256.617L482.011 202.351Z" fill="#EE3442"/>
<path d="M494 221.827L477.136 225.901L472.823 235.772L489.61 231.631L494 221.827Z" fill="#EE3442"/>
<path d="M259.105 342.681L246.443 346.192L223.755 387.573L222.829 352.739L209.483 356.438L210.994 403.384L228.862 397.974L259.105 342.681Z" fill="#EE3442"/>
<path d="M300.234 331.342L264.233 341.323L248.616 392.045L283.491 381.489L286.69 371.917L263.627 378.784L266.616 369.356L286.778 363.438L290.054 353.556L269.77 359.408L273.322 348.201L296.826 341.555L300.234 331.342Z" fill="#EE3442"/>
<path d="M225.619 428.866L189.652 440.338L177.531 485.23L189.465 481.167L193.755 465.809L214.645 458.842L217.237 450.109L196.215 457.02L199.435 445.516L222.917 437.92L225.619 428.866Z" fill="#EE3442"/>
<path d="M236.561 443.407L239.98 432.399L251.561 428.656C252.322 428.413 252.984 428.27 253.535 428.237C254.086 428.204 254.539 428.27 254.859 428.446C255.178 428.623 255.399 428.899 255.476 429.275C255.553 429.65 255.509 430.136 255.322 430.721L254.142 434.375C253.954 434.961 253.667 435.513 253.292 436.032C252.917 436.551 252.465 437.047 251.936 437.5C251.406 437.953 250.8 438.361 250.138 438.715C249.476 439.068 248.748 439.388 247.976 439.642L236.561 443.396M253.612 419.934L231.002 427.144L217.579 471.583L229.005 467.686L233.858 452.096L243.079 449.027L245.351 462.121L256.877 458.191L254.781 443.429C256.094 442.524 257.329 441.563 258.454 440.536C259.579 439.509 260.616 438.438 261.542 437.323C262.469 436.208 263.274 435.049 263.958 433.868C264.642 432.686 265.193 431.461 265.601 430.224L266.517 427.464C267.167 425.499 267.344 423.831 267.079 422.495C266.815 421.159 266.098 420.144 264.973 419.492C263.848 418.841 262.314 418.521 260.406 418.587C258.498 418.653 256.215 419.084 253.601 419.923" fill="#EE3442"/>
<path d="M284.737 442.148C283.116 442.689 281.771 443.02 280.679 443.164C279.587 443.308 278.737 443.241 278.131 443.009C277.524 442.778 277.16 442.369 277.028 441.795C276.895 441.221 276.973 440.503 277.27 439.631L283.061 422.86C283.37 421.965 283.833 421.093 284.473 420.243C285.112 419.393 285.907 418.576 286.877 417.803C287.848 417.03 288.995 416.301 290.307 415.639C291.62 414.977 293.109 414.358 294.774 413.817C296.44 413.276 297.774 412.978 298.877 412.868C299.98 412.757 300.796 412.846 301.381 413.111C301.966 413.376 302.307 413.817 302.418 414.413C302.528 415.01 302.418 415.76 302.098 416.644L296.098 433.327C295.789 434.188 295.326 435.027 294.719 435.844C294.112 436.661 293.329 437.445 292.403 438.185C291.476 438.924 290.373 439.642 289.094 440.293C287.815 440.945 286.37 441.563 284.737 442.115M297.829 404.951C294.587 405.989 291.532 407.281 288.741 408.772C285.951 410.262 283.392 411.962 281.164 413.806C278.936 415.65 277.028 417.626 275.495 419.68C273.962 421.734 272.815 423.876 272.087 426.028L266.131 443.716C265.425 445.803 265.27 447.536 265.634 448.894C265.998 450.252 266.87 451.235 268.226 451.82C269.583 452.405 271.414 452.604 273.697 452.372C275.98 452.14 278.704 451.511 281.848 450.44C284.991 449.369 287.914 448.077 290.572 446.62C293.23 445.162 295.646 443.539 297.752 441.795C299.859 440.05 301.69 438.174 303.168 436.23C304.646 434.287 305.793 432.256 306.554 430.191L312.973 412.702C313.756 410.571 314.01 408.772 313.745 407.325C313.48 405.879 312.697 404.786 311.418 404.09C310.138 403.395 308.352 403.097 306.08 403.218C303.807 403.339 301.039 403.914 297.796 404.94" fill="#EE3442"/>
<path d="M360.135 385.961L350.55 389.019L340.271 415.308L334.072 394.275L324.19 397.433L308.065 440.768L317.682 437.489L327.366 411.94L333.73 432.024L343.072 428.844L360.135 385.961Z" fill="#EE3442"/>
<path d="M398.441 373.75L363.907 384.758L360.422 393.458L372.852 389.439L358.922 423.445L368.672 420.122L382.801 386.215L394.779 382.34L398.441 373.75Z" fill="#EE3442"/>
<path d="M203.77 502.167L169.7 514.245L159.045 553.706L192.09 541.373L194.329 533.865L172.468 541.947L174.531 534.572L193.645 527.572L195.928 519.843L176.692 526.821L179.13 518.11L201.398 510.127L203.77 502.167Z" fill="#EE3442"/>
<path d="M247.237 486.754L237.145 490.331L229.414 514.135L219.785 496.492L209.384 500.179L197.538 539.341L207.63 535.576L214.822 512.457L224.494 529.272L234.3 525.618L247.237 486.754Z" fill="#EE3442"/>
<path d="M253.932 511.827L262.061 488.388L271.193 485.119C272.384 484.689 273.41 484.435 274.259 484.347C275.109 484.258 275.781 484.325 276.267 484.545C276.752 484.766 277.05 485.142 277.16 485.649C277.27 486.157 277.182 486.82 276.906 487.604L272.175 500.742C271.899 501.504 271.48 502.266 270.917 503.006C270.355 503.745 269.682 504.452 268.877 505.126C268.072 505.799 267.167 506.428 266.153 507.003C265.138 507.577 264.035 508.096 262.844 508.537L253.932 511.838M273.212 477.556L254.119 484.325L240.994 523.133L259.634 516.178C262.436 515.129 265.072 513.892 267.498 512.501C269.925 511.11 272.142 509.586 274.083 507.952C276.024 506.318 277.723 504.596 279.09 502.818C280.458 501.04 281.517 499.208 282.19 497.386L287.285 483.508C287.98 481.631 288.168 480.063 287.881 478.826C287.594 477.59 286.833 476.695 285.631 476.165C284.429 475.635 282.763 475.459 280.69 475.679C278.616 475.9 276.101 476.508 273.212 477.534" fill="#EE3442"/>
<path d="M311.352 490.596L320.407 467.465L328.966 464.396C330.08 463.998 331.039 463.766 331.811 463.689C332.583 463.612 333.201 463.689 333.62 463.921C334.039 464.153 334.293 464.528 334.359 465.036C334.425 465.544 334.304 466.195 333.995 466.968L328.767 479.93C328.458 480.681 328.028 481.432 327.466 482.149C326.903 482.867 326.23 483.563 325.458 484.225C324.686 484.888 323.804 485.495 322.844 486.036C321.885 486.577 320.837 487.074 319.712 487.493L311.352 490.585M331.337 456.921L313.469 463.258L298.767 501.548L316.249 495.023C318.874 494.041 321.366 492.859 323.682 491.534C325.999 490.209 328.116 488.73 330.013 487.151C331.91 485.572 333.565 483.894 334.944 482.149C336.322 480.405 337.403 478.616 338.153 476.806L343.767 463.126C344.528 461.271 344.815 459.714 344.639 458.489C344.462 457.263 343.833 456.358 342.775 455.806C341.716 455.254 340.205 455.055 338.297 455.232C336.388 455.408 334.061 455.96 331.348 456.921" fill="#EE3442"/>
<path d="M382.304 438.869L354.488 448.729L338.771 486.621L365.925 476.485L369.08 469.265L351.113 475.9L354.113 468.812L369.786 463.071L372.995 455.651L357.245 461.359L360.775 453.012L378.984 446.476L382.304 438.869Z" fill="#EE3442"/>
<path d="M393.61 449.292L378.687 454.713L375.676 461.569L390.543 456.126L393.61 449.292Z" fill="#EE3442"/>
<path d="M191.781 563.996L180.961 568.158L163.512 597.947L160.876 575.898L149.549 580.259L153.255 609.992L168.52 603.864L191.781 563.996Z" fill="#EE3442"/>
<path d="M227.086 550.438L196.171 562.351L185.472 597.096L215.538 585.018L217.755 578.382L197.858 586.31L199.921 579.806L217.303 572.939L219.564 566.116L202.093 572.972L204.52 565.299L224.748 557.437L227.086 550.438Z" fill="#EE3442"/>
<path d="M242.362 544.553L232.182 548.472L220.502 583.03L249.906 571.216L252.3 564.625L232.7 572.431L242.362 544.553Z" fill="#EE3442"/>
<path d="M269.881 548.251L273.532 538.48L283.171 534.737C283.8 534.494 284.351 534.34 284.815 534.274C285.278 534.207 285.631 534.24 285.896 534.351C286.16 534.461 286.315 534.671 286.37 534.958C286.425 535.245 286.37 535.621 286.193 536.073L284.693 539.96C284.517 540.412 284.263 540.854 283.932 541.285C283.601 541.715 283.204 542.135 282.752 542.521C282.3 542.908 281.782 543.283 281.219 543.614C280.657 543.945 280.05 544.244 279.399 544.497L269.881 548.24M285.135 528.069L266.318 535.311L253.745 569.671L263.296 565.828L267.355 554.964L276.278 551.431C278.418 550.581 280.458 549.565 282.366 548.428C284.274 547.291 286.017 546.021 287.583 544.674C289.149 543.327 290.517 541.892 291.653 540.423C292.789 538.955 293.671 537.431 294.267 535.93L295.524 532.728C296.12 531.204 296.318 529.946 296.131 528.963C295.943 527.98 295.392 527.274 294.488 526.865C293.583 526.457 292.326 526.346 290.76 526.545C289.193 526.744 287.296 527.252 285.124 528.091" fill="#EE3442"/>
<path d="M331.701 510.127L304.226 520.715L290.715 554.832L317.539 544.056L320.263 537.542L302.528 544.608L305.109 538.215L320.594 532.088L323.374 525.408L307.811 531.502L310.844 523.983L328.833 516.984L331.701 510.127Z" fill="#EE3442"/>
<path d="M338.782 520.119L342.366 511.728L351.289 508.261C351.874 508.029 352.381 507.886 352.8 507.831C353.219 507.775 353.539 507.798 353.771 507.908C354.003 508.018 354.124 508.217 354.157 508.493C354.19 508.769 354.102 509.133 353.903 509.575L352.679 512.357C352.48 512.799 352.216 513.23 351.896 513.649C351.576 514.069 351.179 514.455 350.749 514.82C350.319 515.184 349.822 515.526 349.293 515.835C348.764 516.144 348.201 516.42 347.594 516.652L338.782 520.108M353.616 501.681L336.234 508.383L321.973 542.278L330.83 538.723L335.947 526.766L343.072 523.939L343.525 533.622L352.491 530.023L352.315 519.081C353.374 518.331 354.389 517.536 355.326 516.708C356.264 515.879 357.135 515.018 357.918 514.135C358.701 513.252 359.418 512.335 360.036 511.419C360.653 510.503 361.183 509.553 361.602 508.604L362.539 506.495C363.212 504.993 363.488 503.746 363.411 502.774C363.333 501.802 362.892 501.096 362.12 500.676C361.348 500.257 360.234 500.124 358.811 500.29C357.389 500.455 355.657 500.919 353.639 501.692" fill="#EE3442"/>
<path d="M144.078 651.407L152.88 636.733L154.501 647.012L144.089 651.396M162.398 626.377L147.564 632.494L125.736 669.238L135.806 664.943L139.744 658.561L155.351 651.948L156.167 656.265L165.994 652.069L162.387 626.377" fill="#EE3442"/>
<path d="M213.818 605.2L204.696 608.954L198.443 627.878L189.045 615.413L179.67 619.267L170.064 650.347L179.185 646.449L185.02 628.066L194.439 639.946L203.329 636.159L213.818 605.2Z" fill="#EE3442"/>
<path d="M220.899 623.617L227.494 604.902L235.778 601.469C236.858 601.016 237.796 600.718 238.579 600.563C239.362 600.409 239.98 600.387 240.432 600.508C240.884 600.629 241.182 600.872 241.303 601.259C241.425 601.645 241.37 602.142 241.149 602.771L237.311 613.282C237.09 613.89 236.726 614.519 236.241 615.137C235.756 615.756 235.149 616.374 234.443 616.97C233.737 617.566 232.91 618.14 232.005 618.692C231.101 619.244 230.086 619.741 229.005 620.205L220.91 623.639M237.355 595.518L220.049 602.65L209.395 633.598L226.325 626.377C228.873 625.295 231.255 624.069 233.45 622.766C235.645 621.464 237.631 620.061 239.362 618.615C241.094 617.169 242.594 615.678 243.785 614.177C244.976 612.675 245.881 611.173 246.432 609.705L250.579 598.598C251.142 597.096 251.252 595.882 250.943 594.977C250.634 594.071 249.895 593.464 248.759 593.188C247.623 592.912 246.079 592.956 244.171 593.342C242.263 593.729 239.98 594.458 237.355 595.54" fill="#EE3442"/>
<path d="M273.212 601.458L280.59 582.865L288.41 579.619C289.436 579.199 290.307 578.912 291.035 578.78C291.763 578.647 292.326 578.636 292.734 578.769C293.142 578.901 293.396 579.155 293.473 579.541C293.55 579.928 293.473 580.425 293.219 581.054L288.951 591.488C288.697 592.095 288.333 592.713 287.837 593.32C287.34 593.928 286.756 594.535 286.061 595.109C285.366 595.683 284.583 596.246 283.712 596.776C282.84 597.306 281.881 597.781 280.866 598.223L273.223 601.458M290.274 573.69L273.962 580.414L261.995 611.152L277.976 604.339C280.381 603.312 282.653 602.153 284.748 600.894C286.844 599.636 288.763 598.278 290.451 596.876C292.138 595.473 293.616 594.005 294.818 592.537C296.021 591.068 296.947 589.578 297.554 588.12L302.142 577.09C302.76 575.6 302.947 574.385 302.727 573.469C302.506 572.553 301.877 571.934 300.852 571.625C299.826 571.316 298.425 571.327 296.649 571.669C294.874 572.011 292.734 572.685 290.263 573.701" fill="#EE3442"/>
<path d="M336.973 554.445L311.451 564.967L298.613 595.529L323.583 584.885L326.164 579.022L309.653 586.022L312.091 580.292L326.506 574.22L329.131 568.224L314.66 574.275L317.539 567.54L334.271 560.595L336.973 554.445Z" fill="#EE3442"/>
<path d="M348.179 561.125L334.425 566.888L331.955 572.442L345.664 566.679L348.179 561.125Z" fill="#EE3442"/>
<path d="M139.666 680.643C136.7 681.935 134.075 683.293 131.802 684.673C129.53 686.053 127.589 687.466 125.99 688.857C124.391 690.249 123.133 691.618 122.196 692.931C121.258 694.245 120.641 695.493 120.332 696.641C119.648 699.181 120.74 700.196 122.747 700.373C124.755 700.55 127.622 699.898 130.545 699.103C133.468 698.308 136.38 697.37 138.486 696.961C140.593 696.553 141.872 696.663 141.486 697.955C141.321 698.507 140.946 699.081 140.427 699.666C139.909 700.252 139.236 700.815 138.486 701.367C137.736 701.919 136.898 702.449 136.06 702.924C135.222 703.398 134.35 703.84 133.534 704.204C132.42 704.701 131.361 705.099 130.413 705.397C129.464 705.695 128.604 705.871 127.909 705.927C127.214 705.982 126.674 705.916 126.343 705.695C126.012 705.474 125.902 705.121 126.045 704.591L126.42 703.233L116.538 707.627L116.273 708.599C115.909 709.934 116.008 710.983 116.527 711.723C117.045 712.463 117.982 712.882 119.328 712.993C120.674 713.103 122.383 712.871 124.468 712.319C126.552 711.767 128.99 710.873 131.769 709.625C134.549 708.378 137.019 707.064 139.247 705.695C141.475 704.326 143.416 702.912 145.071 701.51C146.725 700.108 148.082 698.684 149.119 697.326C150.156 695.968 150.883 694.632 151.258 693.395C152.019 690.889 151.049 689.807 149.174 689.52C147.299 689.233 144.497 689.774 141.641 690.491C138.784 691.209 135.828 692.137 133.666 692.611C131.505 693.086 130.137 693.13 130.435 692.081C130.567 691.618 130.865 691.132 131.306 690.635C131.747 690.138 132.321 689.63 132.994 689.133C133.666 688.637 134.438 688.151 135.277 687.676C136.115 687.201 137.008 686.76 137.935 686.362C138.961 685.921 139.898 685.567 140.736 685.313C141.575 685.059 142.303 684.916 142.887 684.883C143.472 684.85 143.913 684.927 144.178 685.115C144.442 685.302 144.53 685.611 144.398 686.042L143.968 687.521L153.696 683.238L154.093 681.924C154.468 680.665 154.49 679.638 154.115 678.898C153.74 678.159 152.979 677.673 151.81 677.507C150.641 677.342 149.053 677.507 147.045 678.004C145.038 678.501 142.578 679.384 139.689 680.643" fill="#EE3442"/>
<path d="M172.126 667.041L162.476 671.236L153.873 699.192L163.27 694.985L172.126 667.041Z" fill="#EE3442"/>
<path d="M195.454 656.353C192.74 657.534 190.226 658.826 187.931 660.195C185.637 661.564 183.586 663 181.81 664.457C180.034 665.914 178.556 667.394 177.409 668.851C176.262 670.309 175.446 671.744 175.005 673.113L171.387 684.364C170.957 685.689 170.979 686.727 171.42 687.444C171.861 688.162 172.711 688.57 173.946 688.67C175.181 688.769 176.803 688.548 178.766 688.007C180.729 687.466 183.045 686.616 185.692 685.424C188.34 684.231 190.733 682.984 192.928 681.659C195.123 680.334 197.075 678.954 198.773 677.563C200.472 676.171 201.895 674.747 203.009 673.345C204.123 671.943 204.95 670.563 205.413 669.238L207.796 662.481L190.689 670.033L188.836 675.52L196.766 671.998L196.413 673.003C196.226 673.555 195.862 674.14 195.354 674.747C194.847 675.354 194.185 675.973 193.413 676.58C192.641 677.187 191.737 677.805 190.733 678.402C189.729 678.998 188.626 679.561 187.435 680.091C186.244 680.621 185.196 681.007 184.303 681.272C183.409 681.537 182.648 681.659 182.075 681.648C181.501 681.637 181.082 681.493 180.862 681.206C180.641 680.919 180.619 680.51 180.795 679.947L184.336 669.249C184.523 668.686 184.887 668.078 185.417 667.46C185.946 666.842 186.619 666.201 187.424 665.572C188.229 664.943 189.167 664.313 190.215 663.706C191.262 663.099 192.398 662.525 193.612 661.995C194.825 661.465 195.851 661.089 196.744 660.847C197.637 660.604 198.376 660.493 198.939 660.526C199.501 660.56 199.898 660.725 200.097 661.023C200.295 661.321 200.307 661.752 200.119 662.326L199.612 663.795L208.766 659.765L209.384 658.02C209.869 656.662 209.913 655.58 209.538 654.807C209.163 654.034 208.38 653.549 207.2 653.394C206.02 653.239 204.432 653.394 202.468 653.88C200.505 654.366 198.156 655.205 195.454 656.375" fill="#EE3442"/>
<path d="M248.671 633.686L240.421 637.285L234.013 654.244L226.27 643.446L217.822 647.123L207.84 675.001L216.09 671.302L222.123 654.785L229.91 665.108L237.972 661.498L248.671 633.686Z" fill="#EE3442"/>
<path d="M279.884 620.084L254.296 631.235L243.465 659.025L268.491 647.807L270.686 642.475L254.142 649.85L256.215 644.628L270.653 638.224L272.892 632.77L258.388 639.162L260.814 633.035L277.59 625.681L279.884 620.084Z" fill="#EE3442"/>
<path d="M287.329 626.995L290.219 620.139L298.557 616.484C299.109 616.241 299.583 616.076 299.98 615.987C300.377 615.899 300.686 615.877 300.918 615.943C301.149 616.009 301.282 616.142 301.326 616.352C301.37 616.562 301.315 616.849 301.16 617.213L300.179 619.498C300.024 619.863 299.793 620.227 299.506 620.58C299.219 620.934 298.877 621.276 298.48 621.607C298.083 621.938 297.642 622.259 297.157 622.546C296.671 622.833 296.142 623.12 295.579 623.363L287.329 627.006M300.366 611.174L284.12 618.251L272.627 645.963L280.899 642.254L285.035 632.449L291.697 629.49L292.767 636.921L301.171 633.156L300.267 624.721C301.237 624.025 302.153 623.296 303.002 622.557C303.851 621.817 304.624 621.055 305.329 620.282C306.035 619.509 306.653 618.737 307.182 617.953C307.712 617.169 308.153 616.385 308.495 615.612L309.256 613.89C309.796 612.653 309.984 611.67 309.84 610.931C309.697 610.191 309.223 609.694 308.451 609.462C307.679 609.23 306.598 609.241 305.241 609.528C303.885 609.816 302.252 610.368 300.366 611.185" fill="#EE3442"/>
<path d="M315.686 622.225L307.932 625.681L305.484 631.224L313.193 627.768L315.686 622.225Z" fill="#EE3442"/>
<path d="M109.534 54.7116L103.104 43.8915L122.769 41.871L129.233 52.5697L109.545 54.7116M128.747 16.0463L108.045 17.9122L115.821 30.6314L96.497 32.5083L88.9418 19.6457L67.3681 21.5889L74.6696 34.6282L59.5923 36.0856L70.1585 47.3031L81.2211 46.1659L87.2873 57.1516L71.5924 58.863L82.5888 70.6547L94.1808 69.3187L102.442 84.0142L125.052 81.2208L116.516 66.7462L136.567 64.4276L145.336 78.7145L167.119 76.0316L158.097 61.9434L171.42 60.4087L159.917 49.2574L150.575 50.2732L143.913 39.718L157.281 38.3379L146.218 27.7055L136.766 28.6219L128.758 16.0684" fill="#EE3442"/>
<path d="M178.49 10.3493C172.325 10.9013 167.505 11.8287 163.887 13.0543C160.269 14.2798 157.821 15.8145 156.475 17.5479C155.13 19.2814 154.832 21.2466 155.472 23.3223C156.111 25.398 157.7 27.6172 160.049 29.8475C165.299 34.838 172.247 37.8743 179.847 39.7733C187.446 41.6723 195.652 42.401 203.494 42.8206C211.303 43.2401 218.737 43.3726 224.935 44.0351C231.112 44.7086 236.075 45.9231 238.998 48.5508C240.255 49.677 240.818 50.7038 240.851 51.6091C240.884 52.5145 240.377 53.3205 239.494 54.005C238.612 54.6896 237.343 55.2637 235.866 55.7164C234.388 56.169 232.678 56.5003 230.913 56.7101C228.509 56.9971 225.972 57.0965 223.457 57.0302C220.943 56.964 218.428 56.7211 216.079 56.3126C213.729 55.9041 211.534 55.3079 209.626 54.5571C207.718 53.8063 206.119 52.8678 204.95 51.7858L201.917 48.9593L180.332 51.3552L182.472 53.3978C185.45 56.2243 189.156 58.7526 193.457 60.9056C197.759 63.0586 202.645 64.8362 207.917 66.1611C213.189 67.486 218.869 68.3472 224.748 68.6894C230.616 69.0317 236.671 68.855 242.759 68.0932C248.77 67.3424 253.502 66.1832 257.031 64.7037C260.561 63.2242 262.855 61.4576 264.079 59.4592C265.303 57.4608 265.403 55.2637 264.509 52.9341C263.616 50.6044 261.719 48.1754 258.906 45.6912C253.237 40.7007 246.189 37.5982 238.634 35.6109C231.079 33.6235 222.983 32.7181 215.251 32.1882C207.52 31.6582 200.086 31.4705 194.064 30.9295C188.042 30.3885 183.387 29.4611 181.203 27.4406C180.255 26.5573 179.825 25.7513 179.836 25.0226C179.847 24.2939 180.299 23.6425 181.104 23.0905C181.909 22.5384 183.089 22.0526 184.534 21.6772C185.979 21.3018 187.722 21.0148 189.663 20.8271C191.803 20.6284 193.976 20.5621 196.082 20.6504C198.189 20.7388 200.24 20.9485 202.137 21.2908C204.034 21.6331 205.777 22.0968 207.266 22.682C208.755 23.2671 210.001 23.9627 210.906 24.7797L214.016 27.5841L234.255 25.5526L231.454 23.0905C228.796 20.7498 225.641 18.652 222.035 16.8634C218.428 15.0748 214.402 13.5842 209.946 12.447C205.49 11.3098 200.637 10.537 195.398 10.1726C190.159 9.80826 184.501 9.86346 178.501 10.3934" fill="#EE3442"/>
<path d="M306.984 0.00390625L284.252 2.04647L303.995 33.7118L250.998 5.03856L226.788 7.22466L288.62 61.016L306.532 58.8078L265.105 23.3996L323.583 56.699L337.271 55.0097L311.561 18.5526L353.738 52.9782L370.359 50.9356L306.984 0.00390625Z" fill="#EE3442"/>
<path d="M118.424 99.4604L109.115 100.686L133.049 126.4L142.468 125.009L118.424 99.4604Z" fill="#EE3442"/>
<path d="M130.898 95.4526L121.622 96.6781L130.644 104.572L137.174 103.678L130.898 95.4526Z" fill="#EE3442"/>
<path d="M176.064 91.8312L165.089 93.2775L171.575 108.878L149.306 95.3643L138.012 96.8658L162.288 122.094L170.538 120.88L154.479 104.341L178.501 119.709L184.942 118.76L176.483 101.238L192.773 117.601L200.77 116.43L176.064 91.8312Z" fill="#EE3442"/>
<path d="M208.678 86.9511C206.163 87.2823 204.222 87.7681 202.777 88.3754C201.332 88.9826 200.384 89.7113 199.888 90.5173C199.391 91.3233 199.325 92.2066 199.634 93.145C199.943 94.0835 200.638 95.0441 201.63 96.0157C203.847 98.1797 206.682 99.4494 209.759 100.211C212.836 100.973 216.134 101.216 219.299 101.337C222.465 101.459 225.476 101.437 227.991 101.68C230.505 101.923 232.535 102.408 233.726 103.546C234.233 104.031 234.465 104.473 234.465 104.87C234.465 105.268 234.266 105.621 233.902 105.93C233.539 106.24 233.02 106.493 232.425 106.703C231.829 106.913 231.134 107.068 230.417 107.167C229.447 107.311 228.421 107.377 227.417 107.366C226.413 107.355 225.399 107.266 224.45 107.112C223.502 106.957 222.619 106.714 221.858 106.405C221.097 106.096 220.446 105.71 219.961 105.246L218.715 104.042L210.145 105.257L211.027 106.118C212.252 107.311 213.752 108.359 215.483 109.254C217.215 110.148 219.156 110.855 221.263 111.385C223.369 111.915 225.619 112.235 227.969 112.345C230.318 112.456 232.733 112.345 235.182 111.981C237.63 111.616 239.528 111.098 240.972 110.435C242.417 109.773 243.377 108.989 243.895 108.117C244.414 107.244 244.491 106.284 244.149 105.268C243.807 104.252 243.057 103.192 241.921 102.121C239.627 99.9462 236.737 98.6324 233.627 97.8043C230.516 96.9762 227.186 96.6671 224.009 96.5015C220.833 96.3359 217.81 96.3359 215.362 96.1482C212.913 95.9605 211.016 95.5961 210.101 94.7128C209.704 94.3264 209.505 93.9621 209.505 93.6308C209.505 93.2996 209.671 93.0015 209.98 92.7365C210.288 92.4715 210.763 92.2507 211.347 92.052C211.932 91.8532 212.638 91.7097 213.421 91.6103C214.292 91.4889 215.185 91.4447 216.046 91.4558C216.906 91.4668 217.755 91.5441 218.538 91.6766C219.321 91.8091 220.038 92.0078 220.656 92.2507C221.274 92.4936 221.792 92.8028 222.167 93.1671L223.458 94.4037L231.807 93.2554L230.649 92.1624C229.546 91.1135 228.233 90.1861 226.722 89.4022C225.211 88.6183 223.535 87.9779 221.682 87.5031C219.829 87.0284 217.799 86.7303 215.627 86.6309C213.454 86.5315 211.127 86.6309 208.678 86.9511Z" fill="#EE3442"/>
<path d="M254.66 98.1576L248.748 88.2318L262.976 96.9762L254.66 98.1576ZM248.859 82.2035L237.289 83.7382L252.013 108.889L260.153 107.686L257.583 103.159L270.134 101.348L276.631 105.257L284.605 104.087L248.859 82.2035Z" fill="#EE3442"/>
<path d="M289.248 76.8486L282.057 77.7982L297.41 91.4668L269.737 79.4322L262.381 80.4038L287.925 103.59L295.337 102.497L279.829 88.5299L307.756 100.675L315.002 99.604L289.248 76.8486Z" fill="#EE3442"/>
<path d="M317.715 84.6215L305.098 86.377L309.829 90.5283L322.469 88.7397L317.715 84.6215Z" fill="#EE3442"/>
<path d="M180.167 140.179L147.685 145.324L152.703 150.734L164.461 148.835L185.582 171.293L195.101 169.625L173.891 147.312L185.273 145.479L180.167 140.179Z" fill="#EE3442"/>
<path d="M192.806 138.181L183.63 139.638L210.079 166.998L219.354 165.375L192.806 138.181Z" fill="#EE3442"/>
<path d="M226.502 152.159L220.458 140.753L235.656 150.613L226.502 152.159ZM220.822 133.754L208.104 135.763L223.149 164.712L232.127 163.144L229.491 157.933L243.311 155.559L250.259 159.976L259.028 158.441L220.822 133.776" fill="#EE3442"/>
<path d="M250.072 128.487C247.59 128.873 245.56 129.437 243.994 130.121C242.428 130.806 241.303 131.645 240.663 132.583C240.024 133.522 239.847 134.571 240.145 135.708C240.443 136.845 241.248 138.048 242.538 139.307L253.402 149.939C254.715 151.231 256.314 152.346 258.123 153.263C259.932 154.179 261.95 154.908 264.123 155.416C266.296 155.924 268.612 156.211 271.028 156.266C273.443 156.321 275.914 156.133 278.417 155.692C280.921 155.25 282.906 154.654 284.439 153.914C285.973 153.174 287.02 152.313 287.594 151.331C288.167 150.348 288.267 149.288 287.881 148.14C287.495 146.992 286.645 145.777 285.322 144.518L278.649 138.203L262.733 140.842L268.094 145.998L275.517 144.739L276.52 145.7C277.072 146.23 277.403 146.738 277.513 147.223C277.623 147.709 277.513 148.162 277.204 148.57C276.895 148.979 276.366 149.354 275.649 149.674C274.932 149.995 274.006 150.249 272.892 150.447C271.778 150.646 270.664 150.723 269.594 150.723C268.524 150.723 267.487 150.613 266.528 150.414C265.568 150.215 264.675 149.928 263.891 149.564C263.108 149.2 262.425 148.736 261.873 148.206L251.505 138.159C250.965 137.64 250.656 137.132 250.568 136.657C250.48 136.182 250.612 135.741 250.943 135.332C251.274 134.924 251.825 134.571 252.564 134.261C253.303 133.952 254.241 133.709 255.366 133.533C256.491 133.356 257.538 133.279 258.586 133.301C259.634 133.323 260.627 133.422 261.564 133.621C262.502 133.82 263.362 134.096 264.134 134.46C264.906 134.824 265.568 135.266 266.108 135.785L267.509 137.121L276.002 135.73L274.325 134.151C273.024 132.914 271.469 131.854 269.726 130.971C267.983 130.088 266.042 129.392 263.947 128.907C261.851 128.421 259.623 128.123 257.296 128.045C254.969 127.968 252.542 128.123 250.072 128.509" fill="#EE3442"/>
<path d="M308.892 144.253C307.646 144.463 306.476 144.574 305.396 144.563C304.315 144.552 303.311 144.452 302.396 144.253C301.48 144.055 300.653 143.768 299.914 143.403C299.175 143.039 298.524 142.586 297.973 142.067L287.484 132.274C286.943 131.766 286.579 131.28 286.436 130.817C286.292 130.353 286.348 129.933 286.634 129.547C286.921 129.161 287.429 128.807 288.179 128.509C288.929 128.211 289.921 127.946 291.179 127.747C292.436 127.549 293.561 127.46 294.631 127.471C295.701 127.482 296.671 127.593 297.565 127.78C298.458 127.968 299.263 128.255 299.98 128.619C300.697 128.984 301.337 129.414 301.888 129.922L312.421 139.616C312.984 140.124 313.348 140.621 313.524 141.085C313.701 141.548 313.657 141.979 313.392 142.376C313.127 142.774 312.642 143.138 311.903 143.447C311.164 143.757 310.171 144.033 308.914 144.253M285.818 122.856C283.392 123.243 281.428 123.784 279.917 124.457C278.406 125.131 277.348 125.937 276.752 126.853C276.156 127.769 276.035 128.785 276.377 129.889C276.719 130.993 277.546 132.175 278.848 133.4L289.855 143.757C291.19 145.015 292.778 146.097 294.576 146.992C296.373 147.886 298.37 148.593 300.498 149.089C302.627 149.586 304.91 149.862 307.26 149.917C309.609 149.973 312.035 149.785 314.484 149.354C316.932 148.924 318.874 148.339 320.352 147.621C321.83 146.903 322.822 146.053 323.352 145.104C323.881 144.154 323.925 143.116 323.517 142.001C323.109 140.886 322.227 139.705 320.881 138.479L309.774 128.343C308.462 127.14 306.907 126.102 305.164 125.252C303.421 124.402 301.502 123.717 299.44 123.232C297.377 122.746 295.182 122.47 292.899 122.392C290.616 122.315 288.234 122.47 285.818 122.845" fill="#EE3442"/>
<path d="M235.899 185.447L224.152 187.655L232.535 206.833L207.244 190.835L195.134 193.109L223.612 223.715L232.469 221.871L213.619 201.821L240.994 220.105L247.899 218.68L237.178 197.139L256.281 216.936L264.829 215.169L235.899 185.447Z" fill="#EE3442"/>
<path d="M282.454 205.166C281.076 205.442 279.796 205.597 278.594 205.619C277.392 205.641 276.3 205.542 275.307 205.332C274.314 205.122 273.41 204.802 272.605 204.382C271.8 203.963 271.116 203.455 270.52 202.859L259.381 191.597C258.807 191.012 258.432 190.449 258.289 189.919C258.145 189.389 258.233 188.892 258.553 188.428C258.873 187.964 259.458 187.545 260.296 187.18C261.134 186.816 262.226 186.485 263.616 186.22C265.006 185.955 266.252 185.822 267.41 185.811C268.568 185.8 269.649 185.9 270.62 186.11C271.59 186.319 272.462 186.628 273.234 187.037C274.006 187.445 274.689 187.942 275.274 188.516L286.48 199.646C287.076 200.231 287.462 200.805 287.627 201.335C287.793 201.865 287.737 202.384 287.44 202.859C287.142 203.333 286.579 203.764 285.763 204.15C284.947 204.537 283.844 204.879 282.454 205.155M257.936 180.578C255.267 181.075 253.083 181.759 251.395 182.576C249.708 183.393 248.505 184.376 247.822 185.458C247.138 186.54 246.95 187.744 247.281 189.024C247.612 190.305 248.472 191.674 249.851 193.087L261.52 205.012C262.932 206.458 264.642 207.694 266.583 208.71C268.524 209.726 270.686 210.51 273.024 211.04C275.362 211.57 277.844 211.857 280.425 211.857C283.006 211.857 285.675 211.592 288.377 211.029C291.079 210.466 293.241 209.737 294.884 208.854C296.528 207.971 297.653 206.955 298.271 205.829C298.888 204.702 298.976 203.477 298.557 202.174C298.138 200.871 297.223 199.502 295.789 198.1L283.976 186.474C282.576 185.094 280.91 183.912 279.035 182.952C277.16 181.991 275.076 181.24 272.837 180.722C270.598 180.203 268.193 179.916 265.7 179.882C263.208 179.849 260.583 180.07 257.914 180.578" fill="#EE3442"/>
<path d="M310.899 171.37L301.612 173.114L306.101 185.988L286.667 175.919L277.006 177.729L309.234 194.247L319.193 203.896L328.006 202.075L317.936 192.403L310.899 171.37Z" fill="#EE3442"/>
<path d="M338.539 186.971L331.061 175.058L347.186 185.237L338.528 186.971M330.422 167.704L318.388 169.968L337.061 200.198L345.532 198.442L342.245 192.999L355.293 190.338L362.661 194.898L370.944 193.187L330.422 167.715" fill="#EE3442"/>
<path d="M372.356 159.821L364.9 161.223L382.834 177.332L352.117 163.619L344.495 165.055L374.385 192.458L382.073 190.857L363.929 174.362L394.933 188.196L402.433 186.639L372.356 159.821Z" fill="#EE3442"/>
<path d="M416.496 177.862C415.316 178.105 414.202 178.226 413.154 178.237C412.106 178.248 411.113 178.149 410.198 177.95C409.282 177.752 408.433 177.464 407.672 177.078C406.911 176.692 406.216 176.239 405.599 175.698L394.04 165.529C393.444 164.999 393.025 164.491 392.815 164.017C392.606 163.542 392.606 163.089 392.826 162.681C393.047 162.272 393.488 161.897 394.183 161.577C394.878 161.256 395.793 160.969 396.985 160.749C398.176 160.528 399.257 160.417 400.293 160.417C401.33 160.417 402.29 160.517 403.183 160.704C404.077 160.892 404.893 161.19 405.643 161.555C406.393 161.919 407.066 162.372 407.672 162.901L419.253 172.971C419.86 173.501 420.29 174.009 420.521 174.494C420.753 174.98 420.775 175.433 420.577 175.852C420.378 176.272 419.948 176.658 419.275 177.001C418.602 177.343 417.687 177.63 416.496 177.873M391.095 155.659C388.801 156.089 386.97 156.685 385.602 157.403C384.234 158.121 383.319 158.993 382.867 159.954C382.415 160.914 382.448 161.996 382.933 163.144C383.418 164.293 384.389 165.529 385.823 166.799L397.955 177.564C399.422 178.867 401.121 179.993 402.985 180.909C404.849 181.826 406.889 182.554 409.029 183.04C411.169 183.526 413.419 183.802 415.702 183.835C417.985 183.868 420.312 183.647 422.617 183.162C424.922 182.676 426.731 182.046 428.066 181.274C429.4 180.501 430.239 179.595 430.614 178.602C430.989 177.608 430.889 176.504 430.338 175.334C429.786 174.163 428.761 172.938 427.283 171.657L415.084 161.135C413.639 159.887 411.985 158.816 410.176 157.933C408.367 157.05 406.415 156.365 404.341 155.879C402.268 155.394 400.106 155.118 397.878 155.073C395.65 155.029 393.367 155.206 391.084 155.637" fill="#EE3442"/>
<path d="M441.963 171.712L434.595 173.214L440.937 178.657L443.805 178.061L448.944 184.63L452.11 183.968L448.327 177.122L441.963 171.712Z" fill="#EE3442"/>
</g>
<defs>
<clipPath id="clip0_85_1068">
<rect width="494" height="713" fill="white" transform="translate(0 0.00390625)"/>
</clipPath>
</defs>
</svg>
